<svg id="eyhI76vta2G1" xmlns="http://www.w3.org/2000/svg" xmlns:xlink="http://www.w3.org/1999/xlink" viewBox="0 0 819.18 841.69" shape-rendering="geometricPrecision" text-rendering="geometricPrecision"><g transform="translate(-100.011681-104.136009)"><ellipse rx="346.961401" ry="329.402626" transform="translate(512 483.766862)" fill="#091723" stroke="#091723" stroke-width="20"/><g><path d="M511.633179,944.323461c0,0,86.036917-40.123249,86.036917-40.123249s20.443979-.405875,27.875979-5.360535c4.84774-3.23183,7.375596-10.002503,7.375596-10.002503s21.425054-1.5338,42.177429-4.419289c21.062314-2.928584,41.456544-7.209495,41.456544-7.209495s-78.677955-2.846205-78.677955-2.846205s6.28515-3.923355,6.28515-3.923355s51.23835-12.92377,51.23835-12.92377s84.141061,0,84.141061,0s13.124554-40.689222,13.124554-40.689222-6.423938-2.214379-4.670108-8.060469c1.16267-3.87557,19.328986-41.716539,19.328986-41.716539s78.294216-1.221231,78.294216-1.221231s8.513251-24.443661,8.513251-24.443661-61.485451,0-61.485451,0s25.616566-37.431832,25.616566-37.431832-41.621749-25.835523-87.302971-45.216616c-43.067676-18.272248-90.34889-30.15543-90.34889-30.15543s-36.262563,7.335957-71.312923-.61541c-34.113693-7.73888-67.040557-30.77084-67.040557-30.77084s-61.002286,0-61.002286,0-31.356485,22.988838-64.627995,30.77084c-33.819093,7.910078-69.56215.61541-69.56215.61541s-47.363663,12.28311-90.288302,30.15543c-47.36813,19.722434-90.735644,45.216616-90.735644,45.216616s24.499752,36.459557,24.499752,36.459557-61.618124-.950046-61.618124-.950046s8.845976,25.740963,8.845976,25.740963s79.313878,1.373158,79.313878,1.373158s17.926738,45.526436,17.926738,45.526436-5.282579,2.347813-5.282579,2.347813s14.445084,41.662096,14.445084,41.662096s88.143921,1.402977,88.143921,1.402977s57.748253,15.284139,57.748253,15.284139-82.588658,1.562986-82.588658,1.562986s31.208361,7.448331,45.249101,9.469971c12.614503,1.816285,43.327222,3.629275,43.327222,3.629275s.639581,6.926967,7.787451,10.730453c8.468237,4.506072,22.815401,5.050284,22.815401,5.050284s84.977217,41.081293,84.977217,41.081293s12.757498-5.950602,12.757498-5.950602" transform="translate(-1.003947 1.505922)" fill="#091723" stroke-width="2.048"/><path d="M189.31282,715.3033c0,0,12.46364-7.15127,12.46364-7.15127s30.372501,35.244231,30.372501,35.244231-24.335337.25934-24.594677,0c0,0-18.241464-28.092961-18.241464-28.092961s12.46364-7.15127,12.46364-7.15127" fill="#fff" stroke-width="2.048"/><path d="M231.27638,693.40374c0,0,14.9808-7.25262,14.9808-7.25262s8.826218,16.755378,8.730748,16.898578c0,0-10.799048-9.180405-10.799048-9.180405s-5.30321,2.269027-5.30321,2.269027s7.984072,37.692233,7.984072,37.692233-15.593362-40.426813-15.593362-40.426813s14.9808-7.25262,14.9808-7.25262" transform="translate(.000001 0)" fill="#37506e" stroke-width="2.048"/><path d="M155.900193,788.097866c0,0,7.158199,17.8645,7.158199,17.8645s50.257918,0,50.257918,0-12.12065-17.864501-12.12065-17.864501-45.295467.000001-45.295467.000001s7.158199,17.8645,7.158199,17.8645" fill="#37506e" stroke="#091723" stroke-width="10"/><path d="M155.900193,788.097866c0,0,7.158199,17.8645,7.158199,17.8645s50.257918,0,50.257918,0-12.12065-17.864501-12.12065-17.864501-45.295467.000001-45.295467.000001s7.158199,17.8645,7.158199,17.8645" transform="matrix(-1 0 0 1 1022.351967 0)" fill="#37506e" stroke="#091723" stroke-width="10"/><path d="M230.040077,768.51737c0,0,6.373393,0,6.373393,0s12.05769,35.3447,12.05769,35.3447-4.315426-6.275792-5.90728-9.120695c-4.257166-7.608252-12.523803-26.224005-12.523803-26.224005s6.373393,0,6.373393,0" transform="translate(.000001 0.000001)" fill="#37506e" stroke-width="2.048"/><path d="M152.102661,752.512689c0,0-10.303258-.5-10.303258-.5s1.348197,4.309001,1.348197,4.309001s52.67647-1.67354,52.67647-1.67354-54.024667-2.635461-54.024667-2.635461" transform="translate(0 0.000001)" fill="#37506e" stroke-width="2.048"/><path d="M786.19213,768.25882c0,0,5.637766,1.041305,5.637766,1.041305s-16.908526,31.913435-16.908526,31.913435s11.27076-32.95474,11.27076-32.95474s5.637766,1.030397,5.637766,1.030397" fill="#37506e" stroke-width="2.048"/><path d="M767.095607,703.049697c0,0,8.072563-16.927567,8.072563-16.927567s16.55265,7.32865,16.55265,7.32865-6.679255,19.763461-6.679255,19.763461-8.466725,20.434559-8.483485,20.417799c0,0,6.57052-37.14871,6.57052-37.14871s-4.857122-2.113111-4.857122-2.113111-11.175871,8.679478-11.175871,8.679478" transform="translate(.000001 0.000001)" fill="#37506e" stroke-width="2.048"/><path d="M819.184712,709.38193c0,0,13.338712,6.06604,13.338712,6.06604s-17.94042,26.916372-17.94042,26.916372-23.296845,1.031918-23.296845,1.031918s27.898553-34.01433,27.898553-34.01433s13.338712,6.06604,13.338712,6.06604" transform="translate(.000001 0.000001)" fill="#fff" stroke-width="2.048"/><path d="M880.426768,751.442339c0,0-2.294136,3.567582-2.294136,3.567582s-57.672936,0-57.672936,0s59.967072-3.567583,59.967072-3.567583-2.294136,3.567583-2.294136,3.567583" fill="#37506e" stroke-width="2.048"/></g><g><path d="M505.003128,319.591578c0,0-12.932234,6.952489-12.932234,6.952489s12.932234,7.032002,12.932234,7.032002s6.961012,12.915342,6.961012,12.915342s7.130094-12.915342,7.130094-12.915342s12.983342-7.032002,12.983342-7.032002-12.983342-6.952489-12.983342-6.952489-7.130094-12.879308-7.130094-12.879308-6.961012,12.879308-6.961012,12.879308-12.932234,6.952489-12.932234,6.952489" transform="translate(-.074234 1.737672)" fill="#feffff" stroke="#feffff" stroke-width="2.048"/><path d="M505.003128,319.591578c0,0-12.932234,6.952489-12.932234,6.952489s12.932234,7.032002,12.932234,7.032002s6.961012,12.915342,6.961012,12.915342s7.130094-12.915342,7.130094-12.915342s12.983342-7.032002,12.983342-7.032002-12.983342-6.952489-12.983342-6.952489-7.130094-12.879308-7.130094-12.879308-6.961012,12.879308-6.961012,12.879308-12.932234,6.952489-12.932234,6.952489" transform="translate(-.074234 312.534829)" fill="#feffff" stroke="#feffff" stroke-width="2.048"/><path d="M505.003128,319.591578c0,0-12.932234,6.952489-12.932234,6.952489s12.932234,7.032002,12.932234,7.032002s6.961012,12.915342,6.961012,12.915342s7.130094-12.915342,7.130094-12.915342s12.983342-7.032002,12.983342-7.032002-12.983342-6.952489-12.983342-6.952489-7.130094-12.879308-7.130094-12.879308-6.961012,12.879308-6.961012,12.879308-12.932234,6.952489-12.932234,6.952489" transform="matrix(.5 0 0 0.5 165.84582 125.892055)" fill="#feffff" stroke="#feffff" stroke-width="2.048"/><path d="M505.003128,319.591578c0,0-12.932234,6.952489-12.932234,6.952489s12.932234,7.032002,12.932234,7.032002s6.961012,12.915342,6.961012,12.915342s7.130094-12.915342,7.130094-12.915342s12.983342-7.032002,12.983342-7.032002-12.983342-6.952489-12.983342-6.952489-7.130094-12.879308-7.130094-12.879308-6.961012,12.879308-6.961012,12.879308-12.932234,6.952489-12.932234,6.952489" transform="matrix(.5 0 0 0.5 139.525678 62.484442)" fill="#feffff" stroke="#feffff" stroke-width="2.048"/><path d="M505.003128,319.591578c0,0-12.932234,6.952489-12.932234,6.952489s12.932234,7.032002,12.932234,7.032002s6.961012,12.915342,6.961012,12.915342s7.130094-12.915342,7.130094-12.915342s12.983342-7.032002,12.983342-7.032002-12.983342-6.952489-12.983342-6.952489-7.130094-12.879308-7.130094-12.879308-6.961012,12.879308-6.961012,12.879308-12.932234,6.952489-12.932234,6.952489" transform="matrix(.5 0 0 0.5 370.425109 62.484442)" fill="#feffff" stroke="#feffff" stroke-width="2.048"/><path d="M505.003128,319.591578c0,0-12.932234,6.952489-12.932234,6.952489s12.932234,7.032002,12.932234,7.032002s6.961012,12.915342,6.961012,12.915342s7.130094-12.915342,7.130094-12.915342s12.983342-7.032002,12.983342-7.032002-12.983342-6.952489-12.983342-6.952489-7.130094-12.879308-7.130094-12.879308-6.961012,12.879308-6.961012,12.879308-12.932234,6.952489-12.932234,6.952489" transform="matrix(.5 0 0 0.5 366.118176 125.892055)" fill="#feffff" stroke="#feffff" stroke-width="2.048"/><path d="M505.003128,319.591578c0,0-12.932234,6.952489-12.932234,6.952489s12.932234,7.032002,12.932234,7.032002s6.961012,12.915342,6.961012,12.915342s7.130094-12.915342,7.130094-12.915342s12.983342-7.032002,12.983342-7.032002-12.983342-6.952489-12.983342-6.952489-7.130094-12.879308-7.130094-12.879308-6.961012,12.879308-6.961012,12.879308-12.932234,6.952489-12.932234,6.952489" transform="matrix(.5 0 0 0.5 143.794326 125.892055)" fill="#feffff" stroke="#feffff" stroke-width="2.048"/><path d="M505.003128,319.591578c0,0-12.932234,6.952489-12.932234,6.952489s12.932234,7.032002,12.932234,7.032002s6.961012,12.915342,6.961012,12.915342s7.130094-12.915342,7.130094-12.915342s12.983342-7.032002,12.983342-7.032002-12.983342-6.952489-12.983342-6.952489-7.130094-12.879308-7.130094-12.879308-6.961012,12.879308-6.961012,12.879308-12.932234,6.952489-12.932234,6.952489" transform="matrix(.5 0 0 0.5 344.066682 125.892055)" fill="#feffff" stroke="#feffff" stroke-width="2.048"/></g><g transform="translate(0 0.000001)"><ellipse rx="47.642164" ry="56.887113" transform="matrix(1.51736 0 0 1.13365 508.61862 219.555411)" fill="#feffff" stroke="#feffff" stroke-width="5"/><g><path d="M463.632789,170.271369c0,0,6.488988,15.156185,7.810667,22.047687.794186,4.141049.667279,9.830018.540973,14.044643-.175121,5.8435-2.515763,13.577624-1.91479,19.392775.349014,3.377139,1.862725,7.765541,3.391743,10.796874c1.142707,2.265458,3.282678,4.950599,4.982524,6.834372c5.751025,6.3733,15.09141,13.1815,21.275154,19.135873c4.181859,4.026743,10.011614,9.229563,13.475276,13.888494c2.413923,3.24694,6.563626,11.781499,6.563626,11.781499s-15.52783-.879937-21.954473-2.505743c-6.473748-1.637723-14.95056-4.824902-20.655233-8.295963-3.166592-1.926742-6.857157-5.331557-9.359488-8.066147-2.560221-2.797854-5.491568-6.975928-7.372621-10.269006-1.812712-3.173437-3.672727-7.709669-4.91508-11.1467-1.291854-3.573976-2.953983-8.416352-3.481275-12.179881-.680369-4.856111-.437982-11.461196,0-16.345138.365668-4.077569,1.553015-9.429375,2.428044-13.428701c1.048215-4.790875,3.32959-12.056469,5.148132-18.989512c2.280574-8.694505,4.036821-16.695426,4.036821-16.695426" transform="matrix(1.764271 0 0 1.250251-355.465108-58.273176)" fill="#091723" stroke-width="3"/><path d="M463.632789,170.271369c0,0,6.488988,15.156185,7.810667,22.047687.794186,4.141049.667279,9.830018.540973,14.044643-.175121,5.8435-2.515763,13.577624-1.91479,19.392775.349014,3.377139,1.862725,7.765541,3.391743,10.796874c1.142707,2.265458,3.282678,4.950599,4.982524,6.834372c5.751025,6.3733,15.09141,13.1815,21.275154,19.135873c4.181859,4.026743,10.011614,9.229563,13.475276,13.888494c2.413923,3.24694,6.563626,11.781499,6.563626,11.781499s-15.52783-.879937-21.954473-2.505743c-6.473748-1.637723-14.95056-4.824902-20.655233-8.295963-3.166592-1.926742-6.857157-5.331557-9.359488-8.066147-2.560221-2.797854-5.491568-6.975928-7.372621-10.269006-1.812712-3.173437-3.672727-7.709669-4.91508-11.1467-1.291854-3.573976-2.953983-8.416352-3.481275-12.179881-.680369-4.856111-.437982-11.461196,0-16.345138.365668-4.077569,1.553015-9.429375,2.428044-13.428701c1.048215-4.790875,3.32959-12.056469,5.148132-18.989512c2.280574-8.694505,4.036821-16.695426,4.036821-16.695426" transform="translate(0 0.000001)" fill="#e63201" stroke-width="3"/><path d="M463.632789,170.271369c0,0,4.062213,9.664782,5.473119,13.871413.4533,1.351519,1.686258,5.476358,1.686258,5.476358s.65129,2.699916.65129,2.699916-11.769699,22.117926-14.458066,32.423265c-1.651501,6.330713-1.980004,21.71854-1.980004,21.71854s-1.345079-3.685018-1.791264-5.287073c-.451266-1.620297-1.150412-5.130174-1.19433-5.443642-.680369-4.856111-.437982-11.461196,0-16.345138.365668-4.077569,1.553015-9.429375,2.428044-13.428701c1.048215-4.790875,3.32959-12.056469,5.148132-18.989512c2.280574-8.694505,4.036821-16.695426,4.036821-16.695426" transform="translate(0 0.000001)" fill="#fed250" stroke-width="0.1"/><path d="M471.443456,192.319056c.794186,4.141049.667279,9.830018.540973,14.044643-.175121,5.8435-2.515763,13.577624-1.91479,19.392775.349014,3.377139,1.862725,7.765541,3.391743,10.796874c1.142707,2.265458,3.282678,4.950599,4.982524,6.834372c5.751025,6.3733,15.09141,13.1815,21.275154,19.135873c4.003012,3.85453,12.725673,13.91893,12.725673,13.91893s-11.073111-4.332634-15.62312-6.613171c-3.883738-1.946591-9.000046-4.73616-12.502875-7.305759-3.182366-2.334514-7.033652-5.970786-9.741906-8.841808-2.903265-3.077754-6.751442-7.30631-8.853525-10.978199-1.326061-2.316345-2.346202-5.775786-3.144184-8.322767-.847799-2.705984-2.090853-6.339849-2.302153-9.167651-.268139-3.588472.484464-8.404202,1.160035-11.938695.61198-3.201792,1.64128-7.482446,3.011773-10.440103c1.592906-3.437646,6.994678-10.515314,6.994678-10.515314" transform="translate(0 0.000001)" fill="#f25f04" stroke-width="0.1"/></g><path d="M538.21352,154.01136c.85284-2.1321-.68847-9.16401,1.15022-9.77691c8.2674-2.7558,19.7438,7.26577,18.40359-7.47646-3.22807-35.50882-57.16725-42.33422-77.92772-18.9787-24.66211,27.74487-9.571504,41.892517-7.043524,69.700297c1.56955,17.26503-4.182886,33.510948,4.702244,49.504188c5.12017,9.21631,20.03259,17.535065,27.35866,24.861145c6.90249,6.90249,18.68783,24.56527,29.04317,25.30494c33.66779,2.40484,49.43605-59.72101,38.53252-84.25395-7.09487-15.96346-19.67053-21.02543-30.76851-33.35651-5.14837-5.72042-3.73823-15.92193-3.73823-23.00449" transform="translate(0 0.000001)" fill="#091723" stroke-width="2.048"/><g><path d="M534.221877,289.17083c0,0,9.168298-.006742,9.168298-.006742s2.247317-2.43095,3.158025-3.518248c3.078823-3.675818,7.364162-8.489038,9.837142-12.596976c2.352422-3.907676,4.725516-9.564837,6.210371-13.877496c1.494793-4.341524,3.118603-10.300089,3.673735-14.858056.518405-4.256413.351989-10.019494,0-14.292888-.227226-2.758679-.827814-6.419673-1.509727-9.102383-.866592-3.409255-2.332261-7.900543-3.838043-11.079635-1.293733-2.731403-3.503339-6.13449-5.276257-8.582156-1.845363-2.547682-4.691572-5.646497-6.775386-8.003141-3.69378-4.177401-9.051223-9.362991-12.609407-13.656476-2.517338-3.037548-5.888098-7.129753-7.837331-10.559648-2.191489-3.856171-4.819992-9.296518-5.690497-13.645645-.72017-3.598039-.794993-8.649097,0-12.231347.385939-1.739045,1.550962-3.880414,2.511812-5.380412.95658-1.493332,2.398419-3.451287,3.820275-4.511198c1.532751-1.142577,3.997318-2.036651,5.836678-2.557769c1.748071-.495255,5.997714-.839962,5.997714-.839962s-3.984102-4.137308-5.997714-5.527532c-2.18227-1.506667-5.372936-3.168127-7.905315-3.955153-2.043313-.635031-4.929283-.838086-7.063855-.986403-2.958882-.205593-6.975817-.569117-9.88672,0-2.747483.537166-6.194545,2.16003-8.644535,3.514566-2.383325,1.317678-5.404891,3.415381-7.36735,5.303574-2.621195,2.522-5.76314,6.34139-7.457982,9.559877-1.966115,3.733631-3.475476,9.26026-4.249078,13.40841-.467905,2.508965-.602899,5.940071-.52598,8.491134.07857,2.605831.606103,6.057899,1.058855,8.625299c1.079104,6.119229,4.05895,13.996561,4.660443,20.181029.829946,8.53339-2.359417,20.422384-.465406,28.784219.85578,3.778167,3.327583,8.012125,5.467372,11.241399c2.130719,3.215586,5.559804,7.092175,8.203073,9.901638c5.855612,6.223782,15.634306,12.657652,20.787584,19.47435c3.44199,4.553026,6.64791,11.590191,8.728655,16.905061c1.634023,4.173802,3.980551,14.400855,3.980551,14.400855" fill="#fed250" stroke-width="0.5"/><path d="M534.221877,289.17083c0,0,9.168298-.006742,9.168298-.006742s2.247317-2.43095,3.158025-3.518248c3.078823-3.675818,7.364162-8.489038,9.837142-12.596976c2.352422-3.907676,4.725516-9.564837,6.210371-13.877496c1.494793-4.341524,3.118603-10.300089,3.673735-14.858056.068316-.560916-3.216279-13.149635-5.34777-18.52795-1.736334-4.381229-4.541829-10.064875-7.165551-13.979732-6.347363-9.470904-18.190952-19.523395-24.692434-28.889171-5.58922-8.051608-13.192177-19.136069-15.846031-28.571366-1.05464-3.749583-1.307428-9.152409-.545049-12.972149.440246-2.205762,1.965576-4.894205,3.166299-6.796169c1.201027-1.902445,4.775131-5.782727,4.775131-5.782727s-3.272984-.919385-4.717056-.980474c-1.728866-.073137-4.095669.113577-5.726297.692697-1.95952.695926-4.282282,2.345478-5.864837,3.694386-2.09183,1.782994-4.658332,4.510282-6.049556,6.880792-2.260128,3.851036-3.885259,9.698746-4.967138,14.030974-1.02542,4.106147-1.86654,9.724796-2.097045,13.950763-.202584,3.714075.946486,8.696103.498526,12.388626-.411593,3.392749-2.59459,7.573722-3.166548,10.943145-1.351306,7.960581-2.60814,21.847533-1.46945,26.874715.85578,3.778167,3.327583,8.012125,5.467372,11.241399c2.130719,3.215586,5.559804,7.092175,8.203073,9.901638c5.855612,6.223782,15.634306,12.657652,20.787584,19.47435c3.44199,4.553026,6.64791,11.590191,8.728655,16.905061c1.634023,4.173802,3.980551,14.400855,3.980551,14.400855" fill="#f25f04" stroke-width="0.5"/><path d="M534.221877,289.17083c0,0,9.168298-.006742,9.168298-.006742s2.247317-2.43095,3.158025-3.518248c3.078823-3.675818,7.364162-8.489038,9.837142-12.596976c2.352422-3.907676,4.725516-9.564837,6.210371-13.877496.031911-.092684,1.218768-12.276383.000136-17.330786-1.319516-5.472832-5.68229-11.860193-8.55186-16.703599-3.517077-5.9363-8.693781-13.573959-12.921039-19.027378-3.394101-4.378597-9.045679-9.307087-12.208234-13.855745-3.830185-5.5089-10.581261-19.703812-10.581261-19.703812s1.757224,17.519509,3.253433,24.904205c3.69814,18.252559,16.552464,59.830649,16.552464,59.830649s-8.841357-10.085272-12.855353-14.196096c-4.520339-4.629382-11.231663-10.115202-15.637303-14.853871-2.922717-3.143649-6.625341-7.537283-9.073389-11.063168-3.627735-5.224969-10.661779-18.327312-10.661779-18.327312s-1.971371,5.662955-2.391168,8.186996c-.504443,3.032979-.634969,9.490998-.465718,10.238221.85578,3.778167,3.327583,8.012125,5.467372,11.241399c2.130719,3.215586,5.559804,7.092175,8.203073,9.901638c5.855612,6.223782,15.634306,12.657652,20.787584,19.47435c3.44199,4.553026,6.64791,11.590191,8.728655,16.905061c1.634023,4.173802,3.980551,14.400855,3.980551,14.400855" fill="#e63201" stroke-width="0.5"/><path d="M505.645145,169.057101c1.574528-1.616432,5.987193-4.549439,5.987193-4.549439s-.188772,6.461752-.051391,9.226263c.136575,2.748307.375865,6.432992.960203,9.121931.528358,2.431336,1.654385,5.577033,2.633224,7.864484c1.210392,2.828566,3.121052,6.483115,4.786528,9.070009c2.955924,4.591277,7.891718,10.005363,11.137372,14.396609c2.859091,3.868241,6.787539,8.965153,9.245125,13.100121c1.96419,3.304814,4.580671,7.806246,5.665436,11.494487c1.638118,5.569662,2.317179,13.421447,2.204395,19.225914-.093979,4.836633-1.245396,11.253588-2.457777,15.936747-1.295202,5.003077-5.965608,16.160775-5.965608,16.160775s-3.042046.064724-3.042046.064724s2.908125-12.472383,3.246435-17.927677c.28304-4.564056.136987-10.752685-.842074-15.219469-.745418-3.400832-2.700258-7.682912-4.264462-10.79331-1.185936-2.358217-3.09879-5.333024-4.641268-7.475077-1.637689-2.274273-4.113738-5.08542-5.964613-7.189845-2.924043-3.324605-7.091818-7.51318-10.062509-10.796169-2.615126-2.890045-6.393576-6.530386-8.574163-9.76091-1.902715-2.81886-3.838651-6.965969-5.101025-10.123929-.807589-2.020269-1.733174-4.797029-2.1005-6.941501-.354857-2.071677-.412384-4.899189-.318293-6.998931.080288-1.791724.332266-4.193821.80468-5.924008.560725-2.05362,1.703269-4.687878,2.750771-6.541121.990909-1.753118,2.548519-3.983582,3.959221-5.420678c1.581151-1.610733,5.992339-4.549439,5.992339-4.549439" transform="translate(.000001 0.000001)" fill="#091723" stroke-width="0.5"/></g></g><g transform="translate(0 0.000001)"><path d="M280.152783,713.651868c0,0,0-2.079695,0-2.079695s26.320057,3.875796,26.320057,3.875796s0,47.984332,0,47.984332s32.232268-43.249812,32.232268-43.249812s27.762482,2.717266,27.762482,2.717266-30.706187,52.005445-30.706187,52.005445s30.002436,62.949987,30.002436,62.949987-29.24764-2.339867-29.24764-2.339867-20.530451-43.325291-20.530451-43.325291-9.512908,13.284409-9.512908,13.284409s0,25.470832,0,25.470832-26.320057,0-26.320057,0s0-117.293402,0-117.293402" transform="translate(.000001 0.000001)" fill="#fff" stroke="#091723" stroke-width="2.048"/><path d="M381.11899,725.20954c0,0,25.58022,2.3924,25.58022,2.3924s0,89.102465,0,89.102465s43.43118,2.888789,43.43118,2.888789s0,25.047639,0,25.047639-69.0114-3.961349-69.0114-3.961349s0-115.469944,0-115.469944s25.58022,2.3924,25.58022,2.3924" fill="#fff" stroke="#091723" stroke-width="2.048"/><path d="M463.63279,845.87386L495.12506,733.4844h27.60774l30.87165,112.38946h-25.44299l-4.77473-17.51479h-28.26167l-4.29653,17.51479h-27.19574Zm45.13616-74.03408l-7.77426,31.06642h15.1027l-7.32844-31.06642Z" fill="#fff" stroke="#091723" stroke-width="2.048"/><path d="M620.779356,759.154069c0,0,25.750894-2.232087,25.750894-2.232087s-.669317-23.09143-.669317-23.09143-1.300574-3.742076-4.322172-5.604706c-3.085254-1.901868-7.89286-1.925108-7.89286-1.925108s-51.370065,4.517889-51.370065,4.517889-5.086489,1.066103-7.960743,3.899296c-2.980345,2.937769-3.752301,7.646419-3.752301,7.646419s.669317,41.999629.669317,41.999629s1.233413,4.462869,3.978216,7.366792c3.015321,3.190122,7.567499,4.84824,7.567499,4.84824s38.001532-1.384198,38.001532-1.384198-.519791,19.623081-.519791,19.623081-5.85677,1.39177-11.752521,1.886519c-6.065867.509023-12.175555.121432-12.175555.121432s-.179109-6.133077-.179109-6.133077-26.091575,1.615188-26.091575,1.615188s0,22.756772,0,22.756772s1.042028,3.28824,3.309325,5.5346c2.279322,2.258273,5.783977,3.47473,5.783977,3.47473s57.309789-3.394566,57.309789-3.394566s3.941625-1.609468,6.409817-4.352992c2.563191-2.84912,3.656537-6.836285,3.656537-6.836285s0-46.956687,0-46.956687-1.576197-4.566316-4.602367-7.278323c-2.93881-2.633716-7.330153-3.415417-7.330153-3.415417s-37.931582,1.480464-37.931582,1.480464s0-19.059838,0-19.059838s24.113208-1.326337,24.113208-1.326337s0,6.22,0,6.22" transform="translate(.000001 0)" fill="#fff" stroke="#091723" stroke-width="2.05"/><path d="M668.817364,720.826239c0,0,26.583826-2.699289,26.583826-2.699289s.51757,46.58094.51757,46.58094s32.876023-51.056021,32.876023-51.056021s19.977694-2.580455,19.977694-2.580455-.528215,11.828342-.528215,11.828342-23.185975,48.940024-23.185975,48.940024s26.498803,57.04629,26.498803,57.04629-27.68978,2.059201-27.68978,2.059201-19.581275-38.755241-19.581275-38.755241-8.367275,13.284409-8.367275,13.284409.224938,29.440322,0,29.590281c0,0-27.49408,2.19588-27.68979,1.84362c0,0,.588394-116.082101.588394-116.082101s26.583826-2.699289,26.583826-2.699289" fill="#fff" stroke="#091723" stroke-width="2.048"/></g><g transform="translate(-1 0)"><path d="M422.575225,867.820351c0,0,0-.53172,0-.53172s14.06-.040501,14.06-.040501s0,4.60292,0,4.60292-4.424123,0-4.424123,0s0,18.09798,0,18.09798-5.255232,0-5.255232,0s0-18.09798,0-18.09798-4.380645,0-4.380645,0s0-4.60292,0-4.60292" transform="translate(-2.999999 0)" fill="#feffff" stroke="#091723" stroke-width="0.5"/><path d="M441.01015,870.00988c0,0,.33732-1.31042,1.19386-1.95944.89708-.67974,2.31525-.69951,2.31525-.69951l6.77645-.1028c0,0,1.81152-.01429,2.72293.63878c1.01059.72413,1.13135,2.12297,1.13135,2.12297v15.15898c0,0,.08793,1.63921-.56236,2.69519-.63023,1.02342-1.9993,1.46465-1.9993,1.46465l-8.57829.08862c0,0-1.54814-.3763-2.27832-1.41038-.76878-1.08874-.72158-2.83808-.72158-2.83808l.00001-15.15898Zm5.0259,14.85366h4.09125v-12.63475l-4.09125-.00376v12.63851Z" transform="matrix(1 0 0 1.027981-3-24.26647)" fill="#feffff" stroke="#091723" stroke-width="0.5"/><path d="M460.89481,867.288631c0,0,5.09391.062299,5.09391.062299s0,17.307221,0,17.307221s3.80508,0,3.80508,0s0-17.307221,0-17.307221s5.40077,0,5.40077,0s0,19.23054,0,19.23054-.060842,1.450434-.868469,2.284896c-.821883.849192-2.3908,1.08267-2.3908,1.08267s-7.568355.088614-7.568355.088614-1.642456-.227463-2.52224-1.103203c-.855957-.852024-.949896-2.352977-.949896-2.352977s0-19.292839,0-19.292839" transform="translate(-2.999999 0)" fill="#feffff" stroke="#091723" stroke-width="0.5"/><path d="M492.163576,868.23011c0,0,4.024442.243676,4.170774,5.60293.122862,4.499685-1.80309,7.254-1.80309,7.254l1.80309,8.86201h-5.50582l-.96073-7.59739h-3.83172v8.00593h-4.88839v-22.12748h11.015886Zm-5.975656,3.99492v5.54412c0,0,2.91329.1473,3.66-.26c1.32361-.72197.97402-3.893679.01988-4.752399-.85631-.77068-3.67988-.531721-3.67988-.531721Z" transform="matrix(1 0 0 1.03546-3-31.575089)" fill="#feffff" stroke="#091723" stroke-width="0.5"/><path d="M580.08477,889.512183c0,0-4.285519,0-4.285519,0s0-22.555522,0-22.555522s4.285519,0,4.285519,0s5.49444,10.812489,5.49444,10.812489s0-10.812489,0-10.812489s4.723529,0,4.723529,0s0,22.555522,0,22.555522-4.095313,0-4.095313,0-6.122656-10.594203-6.122656-10.594203s0,10.594203,0,10.594203-4.285519,0-4.285519,0" transform="translate(-78.302739 0.930249)" fill="#feffff" stroke="#091723" stroke-width="0.5"/><path d="M516.09739,890.03765h-4.69313l5.3529-22.78952h4.28l5.82519,22.96676h-4.9123v-2.935h-5.85265l-.00001,2.75776Zm1.4862-7.94554l2.64.04-1.46-6.06-1.18,6.02Z" transform="translate(4 0)" fill="#feffff" stroke="#091723" stroke-width="0.5"/><path d="M532.14134,889.94903c0,0,0-22.128679,0-22.128679s4.78548,0,4.78548,0s3.81066,8.215339,3.81066,8.215339s3.81066-8.215339,3.81066-8.215339s5.3172,0,5.3172,0s0,22.128685,0,22.128685-4.885558.000014-4.885558.000014s0-8.724569,0-8.724569-4.242302,8.724549-4.242302,8.724549-3.81066-8.724549-3.81066-8.724549s0,8.724549,0,8.724549-4.78548,0-4.78548,0s0-1.014583,0-1.014583" transform="matrix(1 0 0 1.004004 3-3.474751)" fill="#feffff" stroke="#091723" stroke-width="0.5"/><path d="M568.65278,867.88691c0,0-12.471021.16353-12.471021.16353s0,21.89861,0,21.89861s13.319347-.00002,13.319347-.00002s0-4.78017,0-4.78017-7.760686,0-7.760686,0s0-4.897044,0-4.897044s6.348079,0,6.348079,0s0-4.236126,0-4.236126-6.348079,0-6.348079,0s0-3.81066,0-3.81066s7.760686-.08862,7.760686-.08862s0-4.2495,0-4.2495-13.319347.16353-13.319347.16353" transform="translate(3.000001 0)" fill="#feffff" stroke="#091723" stroke-width="0.5"/><path d="M580.08477,889.512183c0,0-4.285519,0-4.285519,0s0-22.555522,0-22.555522s4.285519,0,4.285519,0s5.49444,10.812489,5.49444,10.812489s0-10.812489,0-10.812489s4.723529,0,4.723529,0s0,22.555522,0,22.555522-4.095313,0-4.095313,0-6.122656-10.594203-6.122656-10.594203s0,10.594203,0,10.594203-4.285519,0-4.285519,0" transform="translate(3.000001 0.525448)" fill="#feffff" stroke="#091723" stroke-width="0.5"/><path d="M422.575225,867.820351c0,0,0-.53172,0-.53172s14.06-.040501,14.06-.040501s0,4.60292,0,4.60292-4.424123,0-4.424123,0s0,18.09798,0,18.09798-5.255232,0-5.255232,0s0-18.09798,0-18.09798-4.380645,0-4.380645,0s0-4.60292,0-4.60292" transform="translate(175.402749 0)" fill="#feffff" stroke="#091723" stroke-width="0.5"/></g><g><g transform="translate(0 0.000028)"><path d="M262.995774,662.787296c0,0,71.520886-15.954985,71.520886-15.954985s4.727076,23.30048,18.312171,37.321713c14.901005,15.379389,39.193678,21.199048,39.188913,21.180002c0,0-12.13394-12.249709-17.597989-25.561325-5.736165-13.974549-4.522389-27.527582-4.522389-27.527582s5.338208,12.540827,13.862104,21.432189c7.894763,8.235105,19.0235,12.871112,19.0235,12.871112.031407-.031407-3.175703-14.184397,3.096878-23.193956c5.75863-8.27135,20.743999-11.797534,20.743999-11.797534s-11.562182,15.746251-.010889,29.55898c10.032818,11.996978,40.995178,19.995197,40.995178,19.995197s-7.549652-13.059058-9.244011-25.521508c-1.791737-13.17869,2.266375-25.800817,2.266375-25.800817s4.941256,22.388819,18.359504,35.657258c11.770402,11.638992,32.234326,14.371716,32.234326,14.371716s0,15.142905,0,15.142905-23.662962.438413-55.568873-1.202303c-19.603042-1.008058-42.126257-3.532361-64.049717-5.72962-55.406607-5.553076-106.134249-15.96869-106.134249-15.96869s-6.113308-7.251211-11.791906-14.647112c-5.557966-7.238788-10.683811-14.62564-10.683811-14.62564s71.520886-15.954985,71.520886-15.954985" transform="translate(.000005 0.000073)" fill="#e63201" stroke-width="0"/><path d="M334.51666,646.832311c0,0,4.727076,23.30048,18.312171,37.321713c14.901005,15.379389,39.193678,21.199048,39.188913,21.180002c0,0-12.13394-12.249709-17.597989-25.561325-5.736165-13.974549-4.522389-27.527582-4.522389-27.527582s5.338208,12.540827,13.862104,21.432189c7.894763,8.235105,19.0235,12.871112,19.0235,12.871112.031407-.031407-3.175703-14.184397,3.096878-23.193956c5.75863-8.27135,20.743999-11.797534,20.743999-11.797534s-11.562182,15.746251-.010889,29.55898c10.032818,11.996978,40.995178,19.995197,40.995178,19.995197s-7.549652-13.059058-9.244011-25.521508c-1.791737-13.17869,2.266375-25.800817,2.266375-25.800817s5.052769,15.029808,5.052769,15.029808-.311868,12.826713,8.03012,24.796532c9.113297,13.076561,26.948749,25.394228,26.948749,25.394228s-13.244551-.13908-27.743674-.574565c-1.798927-.054032-33.589894-5.00394-60.022206-15.6216-21.285361-8.550169-38.476503-23.223586-38.476503-23.223586s2.212734,8.729066,7.28248,16.760029c5.2006,8.23825,13.159811,16.006756,13.159811,16.006756s-60.647777-7.737049-60.647777-7.737049-10.715434-7.820802-16.644993-19.503425c-6.305101-12.422528-7.847405-28.752341-7.847405-28.752341s24.794789-5.531258,24.794789-5.531258" transform="translate(.000005 0.000073)" fill="#f25f04"/><path d="M419.86129,653.756682c3.798346-1.502248,6.762557-2.199752,6.762557-2.199752s-11.562182,15.746251-.010889,29.55898c9.004293,10.767095,40.995178,19.995197,40.995178,19.995197s-32.452251-4.594934-45.364828-17.401387c-10.76431-10.675839-2.382017-29.953036-2.382017-29.953036" transform="translate(.000005 0.000073)" fill="#fed250"/><path d="M382.560451,693.949289c-2.987954-4.153561-6.051755-9.087471-8.140696-14.176588-5.736165-13.974549-4.522389-27.527582-4.522389-27.527582s5.338208,12.540827,13.862104,21.432189c7.029687,7.332736,19.0235,12.871112,19.0235,12.871112s-5.799469,1.308259-10.419671.726736c-.835712-.105187-2.392049-.459672-2.392049-.459672s-4.006293-2.594678-7.817744-5.345983c-3.229977-2.331567-7.733751-5.879902-7.733751-5.879902s1.371383,4.795029,3.392387,9.352994c2.049149,4.621441,4.748309,9.006696,4.748309,9.006696" transform="translate(.000005 0.000073)" fill="#fed250" stroke-width="0"/><path d="M392.363304,705.761578c0,0-7.300247.582321-14.421124,0-7.199876-.588781-10.289253-.543635-14.221253-2.342275-7.11333-3.253896-14.511861-11.149004-20.029577-16.693561-4.480363-4.502157-10.372337-10.78784-13.47602-16.32952-3.11364-5.559458-6.905147-21.074868-6.905147-21.074868s11.206482-2.488971,11.206482-2.488971s1.252332,4.808511,1.781216,6.655442c.658829,2.300715,1.820338,5.28931,2.680701,7.522496c1.310166,3.400709,3.26023,7.800357,5.179621,10.898308c2.49166,4.021608,5.926193,9.286977,9.168051,12.732561c2.840544,3.019051,7.439746,6.435805,10.92,8.687735c3.589724,2.322763,8.380147,4.758887,12.247293,6.425304c4.729313,2.037939,12.108177,4.743315,15.869757,6.007349" transform="translate(0 0.000001)" fill="#fed250" stroke-width="0.5"/></g><g transform="matrix(-1 0 0 1 1022.434335 0.000028)"><path d="M262.995774,662.787296c0,0,71.520886-15.954985,71.520886-15.954985s4.727076,23.30048,18.312171,37.321713c14.901005,15.379389,39.193678,21.199048,39.188913,21.180002c0,0-12.13394-12.249709-17.597989-25.561325-5.736165-13.974549-4.522389-27.527582-4.522389-27.527582s5.338208,12.540827,13.862104,21.432189c7.894763,8.235105,19.0235,12.871112,19.0235,12.871112.031407-.031407-3.175703-14.184397,3.096878-23.193956c5.75863-8.27135,20.743999-11.797534,20.743999-11.797534s-11.562182,15.746251-.010889,29.55898c10.032818,11.996978,40.995178,19.995197,40.995178,19.995197s-7.549652-13.059058-9.244011-25.521508c-1.791737-13.17869,2.266375-25.800817,2.266375-25.800817s4.941256,22.388819,18.359504,35.657258c11.770402,11.638992,32.234326,14.371716,32.234326,14.371716s0,15.142905,0,15.142905-23.662962.438413-55.568873-1.202303c-19.603042-1.008058-42.126257-3.532361-64.049717-5.72962-55.406607-5.553076-106.134249-15.96869-106.134249-15.96869s-6.113308-7.251211-11.791906-14.647112c-5.557966-7.238788-10.683811-14.62564-10.683811-14.62564s71.520886-15.954985,71.520886-15.954985" transform="translate(.000005 0.000073)" fill="#e63201" stroke-width="0"/><path d="M334.51666,646.832311c0,0,4.727076,23.30048,18.312171,37.321713c14.901005,15.379389,39.193678,21.199048,39.188913,21.180002c0,0-12.13394-12.249709-17.597989-25.561325-5.736165-13.974549-4.522389-27.527582-4.522389-27.527582s5.338208,12.540827,13.862104,21.432189c7.894763,8.235105,19.0235,12.871112,19.0235,12.871112.031407-.031407-3.175703-14.184397,3.096878-23.193956c5.75863-8.27135,20.743999-11.797534,20.743999-11.797534s-11.562182,15.746251-.010889,29.55898c10.032818,11.996978,40.995178,19.995197,40.995178,19.995197s-7.549652-13.059058-9.244011-25.521508c-1.791737-13.17869,2.266375-25.800817,2.266375-25.800817s5.052769,15.029808,5.052769,15.029808-.311868,12.826713,8.03012,24.796532c9.113297,13.076561,26.948749,25.394228,26.948749,25.394228s-13.244551-.13908-27.743674-.574565c-1.798927-.054032-33.589894-5.00394-60.022206-15.6216-21.285361-8.550169-38.476503-23.223586-38.476503-23.223586s2.212734,8.729066,7.28248,16.760029c5.2006,8.23825,13.159811,16.006756,13.159811,16.006756s-60.647777-7.737049-60.647777-7.737049-10.715434-7.820802-16.644993-19.503425c-6.305101-12.422528-7.847405-28.752341-7.847405-28.752341s24.794789-5.531258,24.794789-5.531258" transform="translate(.000005 0.000073)" fill="#f25f04"/><path d="M419.86129,653.756682c3.798346-1.502248,6.762557-2.199752,6.762557-2.199752s-11.562182,15.746251-.010889,29.55898c9.004293,10.767095,40.995178,19.995197,40.995178,19.995197s-32.452251-4.594934-45.364828-17.401387c-10.76431-10.675839-2.382017-29.953036-2.382017-29.953036" transform="translate(.000005 0.000073)" fill="#fed250"/><path d="M382.560451,693.949289c-2.987954-4.153561-6.051755-9.087471-8.140696-14.176588-5.736165-13.974549-4.522389-27.527582-4.522389-27.527582s5.338208,12.540827,13.862104,21.432189c7.029687,7.332736,19.0235,12.871112,19.0235,12.871112s-5.799469,1.308259-10.419671.726736c-.835712-.105187-2.392049-.459672-2.392049-.459672s-4.006293-2.594678-7.817744-5.345983c-3.229977-2.331567-7.733751-5.879902-7.733751-5.879902s1.371383,4.795029,3.392387,9.352994c2.049149,4.621441,4.748309,9.006696,4.748309,9.006696" transform="translate(.000005 0.000073)" fill="#fed250" stroke-width="0"/><path d="M392.363304,705.761578c0,0-7.300247.582321-14.421124,0-7.199876-.588781-10.289253-.543635-14.221253-2.342275-7.11333-3.253896-14.511861-11.149004-20.029577-16.693561-4.480363-4.502157-10.372337-10.78784-13.47602-16.32952-3.11364-5.559458-6.905147-21.074868-6.905147-21.074868s11.206482-2.488971,11.206482-2.488971s1.252332,4.808511,1.781216,6.655442c.658829,2.300715,1.820338,5.28931,2.680701,7.522496c1.310166,3.400709,3.26023,7.800357,5.179621,10.898308c2.49166,4.021608,5.926193,9.286977,9.168051,12.732561c2.840544,3.019051,7.439746,6.435805,10.92,8.687735c3.589724,2.322763,8.380147,4.758887,12.247293,6.425304c4.729313,2.037939,12.108177,4.743315,15.869757,6.007349" transform="translate(0 0.000001)" fill="#fed250" stroke-width="0.5"/></g></g><g transform="translate(.000001 0)"><path d="M606.61385,361.500634c94.04607-26.8703,28.962493-79.339271,41.400723-104.215731c11.61535-23.2307,41.024315-33.618353,53.971485-48.937279c4.1125-4.865858,9.428681-11.540487,12.793835-16.950197c3.618517-5.817008,8.216913-13.86024,10.268556-20.396447c3.39584-10.818602,5.345276-37.416929,5.345276-37.416929s17.007692,10.046995,22.506424,16.317157c6.709844,7.651183,13.382427,20.036245,16.155726,29.82764c3.483863,12.300105,3.174367,29.788767,2.368893,42.547336-.8647,13.696704-8.267204,44.993359-8.267204,44.993359s19.119075,26.496282,19.119075,26.496282s12.59984-29.350911,18.29235-41.798966c1.134911-2.481758,3.370459-7.758964,5.860056-12.454423c2.371478-4.472683,5.005531-8.40675,5.879987-9.316342c1.958019-2.036693,4.380366-3.489788,4.380366-3.489788s8.526369,25.298996,10.291541,36.553939c2.130923,13.58701,2.9241,32.115907,1.681913,45.812792-1.680821,18.533452-10.973905,51.823207-16.649212,73.889628-3.306025,12.85431-4.542185,21.962705-4.542185,21.962705s15.646463-8.353437,21.937318-12.598775c5.539926-3.738579,10.948798-12.53141,17.517582-13.763814c3.575587-.670834,9.205732.789463,11.602555,3.526266c3.052044,3.484965,2.973904,10.629013,2.502676,15.237473-.5133,5.019912-3.452361,11.363984-6.028943,15.702672-2.746008,4.623983-8.480554,9.283859-11.619586,13.650581-4.563514,6.348327-11.1725,14.849331-13.428854,22.335036-1.239948,4.113667-.632606,14.307617-.632606,14.307617s7.779325-15.31169,12.989515-20.33842c4.992535-4.81674,13.325768-9.592864,19.92226-11.740581c6.277454-2.043843,16.122065-5.320039,21.902561-2.13106c3.671699,2.0256,6.10446,8.30046,6.274788,12.490379.379795,9.342647-5.893657,21.29964-10.393636,32.148026-4.489424,10.822939-7.19818,20.542335-12.948265,25.57366-9.42617,8.2479-28.95912,6.1934-40.87646,6.1934-60.96408,0-92.65266-29.10817-128.82279-74.32084-19.78119-24.72649-50.82398-45.86164-75.55952-65.65008" transform="translate(.000001 0)" fill="#091723" stroke-width="2.048"/><path d="M854.73827,483.11119c7.23816-7.23816,10.22548-18.45381,14.35293-27.53418.61618-1.3556,4.96117-8.55422,3.95438-9.81271-.29176-.3647-9.95591,4.12882-10.98438,4.54021-7.15059,2.86024-12.70866,6.89714-14.64584,14.64584-2.228563,8.914252-2.498936,28.002429,7.337774,18.169587" transform="translate(0 0.000001)" fill="#e63201" stroke-width="2.048"/><path d="M822.78423,425.62554c6.37564-6.37564,14.21467-12.49886,19.413-19.86316c1.23928-1.75565,2.574511-3.097702,3.657931-4.955002.52194-.89476,1.350059-3.204088,1.350059-3.204088s-1.70819,1.42684-2.0257,1.74436c-1.58068,1.58068-3.75037,2.66296-5.7395,3.65752-9.95719,4.9786-20.40475,10.08895-25.82773,20.25704-2.23369,4.18818-2.13824,8.77022-2.13824,13.39216c0,.36337.12399,4.78005.5627,4.67037.67321-.1683,2.42772-4.68663,2.75721-5.34561c1.91351-3.82702,5.10412-7.41118,8.10282-10.40987" fill="#e63201" stroke-width="2.048"/><path d="M758.842844,309.089575c0,0,2.024955,3.241313,2.620396,4.432195c2.40669,4.81338,5.12586,20.51289-5.09425,18.80954-9.88913-1.64819-8.6822-19.94265-7.44544-26.74481.2055-1.13022,2.54713-9.79663,2.54713-9.79663s.15413,3.34522.8817,4.80035c1.64521,3.29041,3.950464,5.779355,6.46578,8.42511" transform="translate(.000001 0)" fill="#e63201" stroke-width="2.048"/><path d="M631.14158,368.196901c0,0,22.21159-1.469391,31.316951.860116c6.3911,1.635093,19.570695,10.026961,19.570695,10.026961s4.226042-5.679129,5.640869-8.350907c3.929284-7.420109,6.420296-18.587496,10.379277-25.991803c2.13815-3.998887,8.560882-12.457394,8.560882-12.457394s2.545352,3.947072,3.213928,5.828612c.836903,2.355255,1.197848,5.71552,1.482753,8.198757.722656,6.298691,1.414011,14.778078,1.04665,21.107437-.263232,4.535297-1.169912,10.590723-2.494725,14.93619-.932833,3.05975-2.672828,7.021832-4.409473,9.708151-1.143392,1.768649-2.797325,4.245231-4.636627,5.271113-1.374872.766843-5.173499.878519-5.173499.878519s19.94952,29.113669,28.06264,41.876012c6.164567,9.697171,19.762391,32.810454,19.762391,32.810454s68.810377,20.896706,68.810377,20.896706-16.398792-40.303281-20.405531-58.434222c-2.416733-10.935988-4.328052-25.968236-3.690675-37.149926c1.486169-26.072294,15.044842-59.184257,18.393064-85.083342c1.250462-9.672544,1.518287-22.725626,1.437521-32.47833-.041495-5.010593-1.014798-16.671694-1.014798-16.671694s-5.741109,25.59126-9.278161,36.242813c-3.023827,9.106017-7.423313,21.239871-12.177585,29.574136-3.18508,5.583464-7.97187,12.982378-12.902441,17.106608-3.02857,2.53328-7.84949,5.285887-11.742672,5.943821-3.581477.605257-8.52991-.539362-11.999409-1.614486-2.569806-.796329-5.890476-2.37808-8.006624-4.039393-2.159498-1.695345-4.549172-4.593756-5.943821-6.95862-1.698848-2.880686-3.187416-7.173548-3.914224-10.43793-.834388-3.747566-1.127328-8.919789-1.014799-12.75747.231651-7.900198,1.988112-18.362444,3.624281-26.094826c1.667089-7.878508,5.470019-17.985026,7.393534-25.804883c2.231848-9.073355,5.002524-21.249641,6.289635-30.504384.927905-6.671931,1.68899-15.657996,1.638582-22.393954-.052316-6.990835-.850066-16.325655-2.048227-23.213246-1.08035-6.210357-5.329966-20.324839-5.329966-20.324839s-1.766025,26.171238-3.545687,37.256853c-1.318445,8.212665-3.579301,19.124274-6.144683,27.036604-2.541533,7.838774-6.816192,18.04096-10.787332,25.261474-4.67079,8.492651-11.188548,20.038771-18.297499,26.626958-1.077052.998153-2.820764,2.055468-4.233004,2.457873-1.614311.459983-3.958272.544575-5.592849.162814-1.718036-.401253-4.080596-1.389059-5.194483-2.757236-1.293165-1.588382-1.719495-4.515137-1.911679-6.554328-.401586-4.26108.053436-10.127151,1.365485-14.201044c1.148005-3.564537,4.106761-7.738477,6.281231-10.787332c5.717296-8.016301,16.164293-16.537061,21.438116-24.851828c2.009502-3.168203,5.084449-11.425588,5.084449-11.425588s-8.26625,8.577506-12.184972,11.835234c-5.954806,4.950373-14.514913,10.787436-21.06417,14.919402-4.315195,2.722483-10.723986,5.289743-14.848086,8.293843-3.306305,2.408397-7.751656,5.860401-9.97938,9.291039-1.777813,2.737787-3.115452,7.053993-3.533698,10.291456-.372522,2.883531-.036458,6.85644.714529,9.665273c1.526568,5.709656,5.891168,12.470214,8.54636,17.750416c1.278364,2.542197,3.496238,5.703368,4.406449,8.399383.908344,2.690483,1.545463,6.492829,1.583215,9.332259.059197,4.452336-.842178,10.420623-2.092609,14.694172-1.241651,4.24354-3.553244,9.806053-6.115038,13.409735-2.787782,3.92158-7.814557,8.104596-11.595767,11.07999-2.911073,2.290693-7.137778,4.898437-10.390535,6.670781-3.572822,1.946739-12.344441,5.617615-12.344441,5.617615s2.395305.099425,2.395305.099425" transform="translate(1.127197-4.73422)" fill="#e63201" stroke-width="0.5"/><path d="M631.14158,368.196901c0,0,16.068903-1.063026,26.474507.052671.304294.032627,16.775816-28.541695,27.379673-37.618646c6.432216-5.506007,17.092964-15.619928,25.107749-12.889956c5.088016,1.733065,10.758996,31.750795,19.13657,43.176975c3.527015,4.810498,9.570065,10.498798,14.913127,13.150667c5.209803,2.58573,13.216341,4.384776,19.005754,3.827338c5.552412-.534618,12.750526-3.707065,17.192474-7.081112c7.269034-5.521466,17.816432-20.691363,18.710384-23.994995c3.186902-11.777311,6.168043-23.313489,7.509709-33.691508c1.250462-9.672544,1.518287-22.725626,1.437521-32.47833-.041495-5.010593-1.014798-16.671694-1.014798-16.671694s-5.741109,25.59126-9.278161,36.242813c-3.023827,9.106017-7.423313,21.239871-12.177585,29.574136-3.18508,5.583464-7.97187,12.982378-12.902441,17.106608-3.02857,2.53328-7.84949,5.285887-11.742672,5.943821-3.581477.605257-8.52991-.539362-11.999409-1.614486-2.569806-.796329-5.890476-2.37808-8.006624-4.039393-2.159498-1.695345-4.549172-4.593756-5.943821-6.95862-1.698848-2.880686-3.187416-7.173548-3.914224-10.43793-.834388-3.747566-1.127328-8.919789-1.014799-12.75747.231651-7.900198,1.988112-18.362444,3.624281-26.094826c1.667089-7.878508,5.470019-17.985026,7.393534-25.804883c2.231848-9.073355,5.002524-21.249641,6.289635-30.504384.927905-6.671931,1.68899-15.657996,1.638582-22.393954-.052316-6.990835-.850066-16.325655-2.048227-23.213246-1.08035-6.210357-5.329966-20.324839-5.329966-20.324839s-1.766025,26.171238-3.545687,37.256853c-1.318445,8.212665-3.579301,19.124274-6.144683,27.036604-2.541533,7.838774-6.816192,18.04096-10.787332,25.261474-4.67079,8.492651-11.188548,20.038771-18.297499,26.626958-1.077052.998153-2.820764,2.055468-4.233004,2.457873-1.614311.459983-3.958272.544575-5.592849.162814-1.718036-.401253-4.080596-1.389059-5.194483-2.757236-1.293165-1.588382-1.719495-4.515137-1.911679-6.554328-.401586-4.26108.053436-10.127151,1.365485-14.201044c1.148005-3.564537,4.106761-7.738477,6.281231-10.787332c5.717296-8.016301,16.164293-16.537061,21.438116-24.851828c2.009502-3.168203,5.084449-11.425588,5.084449-11.425588s-8.26625,8.577506-12.184972,11.835234c-5.954806,4.950373-14.514913,10.787436-21.06417,14.919402-4.315195,2.722483-10.723986,5.289743-14.848086,8.293843-3.306305,2.408397-7.751656,5.860401-9.97938,9.291039-1.777813,2.737787-3.115452,7.053993-3.533698,10.291456-.372522,2.883531-.036458,6.85644.714529,9.665273c1.526568,5.709656,5.891168,12.470214,8.54636,17.750416c1.278364,2.542197,3.496238,5.703368,4.406449,8.399383.908344,2.690483,1.545463,6.492829,1.583215,9.332259.059197,4.452336-.842178,10.420623-2.092609,14.694172-1.241651,4.24354-3.553244,9.806053-6.115038,13.409735-2.787782,3.92158-7.814557,8.104596-11.595767,11.07999-2.911073,2.290693-7.137778,4.898437-10.390535,6.670781-3.572822,1.946739-12.344441,5.617615-12.344441,5.617615" transform="translate(1.127197-4.73422)" fill="#f25f04" stroke-width="0.5"/><path d="M807.391818,304.543583c.550872-8.00042.675842-16.816052.61723-23.893578-.041495-5.010593-1.014798-16.671694-1.014798-16.671694s-5.741109,25.59126-9.278161,36.242813c-3.023827,9.106017-7.423313,21.239871-12.177585,29.574136-3.18508,5.583464-7.97187,12.982378-12.902441,17.106608-3.02857,2.53328-7.84949,5.285887-11.742672,5.943821-3.581477.605257-8.52991-.539362-11.999409-1.614486-2.569806-.796329-5.890476-2.37808-8.006624-4.039393-2.159498-1.695345-4.549172-4.593756-5.943821-6.95862-1.410518-2.391774-2.830269-5.798954-3.650764-8.745013-.003158-.01134-1.886226,5.295506-1.837168,7.657412.059024,2.841725,1.211832,6.627988,2.591031,9.113283c2.246708,4.048533,6.475789,8.922485,10.364126,11.436277c3.359867,2.172139,8.699613,3.783278,12.687119,4.109912c4.263314.349227,10.172206-.431495,14.098936-2.128139c4.511453-1.949289,9.583593-6.47692,12.882225-10.119988c3.904905-4.312647,7.576011-11.28087,10.41151-16.360944c5.040067-9.029774,14.295496-19.904658,14.903364-30.656878" transform="translate(1.127197-4.73422)" fill="#fed250" stroke-width="0.5"/><path d="M683.19034,245.749754c-3.858077,3.359414-7.947841,10.477649-9.538203,15.623612-1.450352,4.69293-2.428789,11.528585-1.339557,16.318229c1.107398,4.869524,4.643477,11.082375,8.402671,14.369784c2.685131,2.348142,7.44298,4.064699,10.972586,4.580046c5.445251.795045,13.169096.203343,18.24138-1.930853c5.541574-2.331653,11.638407-8.117427,15.442252-12.773221c7.33538-8.978289,13.861747-23.340772,18.199688-34.092504c1.541528-3.820728,3.238547-9.52784,3.750807-13.21115.927905-6.671931,1.68899-15.657996,1.638582-22.393954-.052316-6.990835-.850066-16.325655-2.048227-23.213246-1.08035-6.210357-5.329966-20.324839-5.329966-20.324839s-.001055,9.927495-.933458,20.158627c-.147304,1.616347.788793,20.570888-.159749,29.313878-.86186,7.944018-3.170213,18.42481-5.570352,26.04646-1.215609,3.86017-3.46432,8.794648-5.246743,12.428047-1.978878,4.033863-4.584519,9.507479-7.346364,13.05152-1.967463,2.524678-5.234756,5.350612-7.737129,7.346365-3.318739,2.646842-10.775477,6.904753-11.781406,7.836992-.480241.445061-1.093024.901885-1.749865,1.30717-.816276.50366-1.700596.927724-2.483139,1.150703-1.614311.459983-3.958272.544575-5.592849.162814-1.718036-.401253-4.080596-1.389059-5.194483-2.757236-.340368-.41807-3.992748-5.745848-4.624169-8.608634-.620369-2.812678-.153236-6.794761.563786-9.584366.612086-2.381344,2.078945-5.410162,3.523664-7.399694c1.523912-2.098588,5.828436-5.328425,6.271756-5.95001c5.717296-8.016301,16.164293-16.537061,21.438116-24.851828c2.009502-3.168203,5.084449-11.425588,5.084449-11.425588s-8.26625,8.577506-12.184972,11.835234c-5.954806,4.950373-14.514913,10.787436-21.06417,14.919402-1.117327.704929-3.697066,2.093844-3.697066,2.093844" transform="translate(1.127197-4.73422)" fill="#fed250" stroke-width="0.5"/></g><g transform="matrix(-1 0 0 1 1019.380492 3.674993)"><path d="M606.660161,360.647804c94.046071-26.8703,29.243734-79.042476,41.681964-103.918936c11.61535-23.2307,40.696763-33.062318,53.643933-48.381244c4.1125-4.865858,9.428681-11.540487,12.793835-16.950197c3.618517-5.817008,8.216913-13.86024,10.268556-20.396447c3.39584-10.818602,5.345276-37.416929,5.345276-37.416929s17.007692,10.046995,22.506424,16.317157c6.709844,7.651183,13.382427,20.036245,16.155726,29.82764c3.483863,12.300105,3.174367,29.788767,2.368893,42.547336-.8647,13.696704-8.267204,44.993359-8.267204,44.993359s19.119075,26.496282,19.119075,26.496282s12.59984-29.350911,18.29235-41.798966c1.134911-2.481758,3.370459-7.758964,5.860056-12.454423c2.371478-4.472683,5.005531-8.40675,5.879987-9.316342c1.958019-2.036693,4.380366-3.489788,4.380366-3.489788s8.526369,25.298996,10.291541,36.553939c2.130923,13.58701,2.9241,32.115907,1.681913,45.812792-1.680821,18.533452-10.973905,51.823207-16.649212,73.889628-3.306025,12.85431-4.542185,21.962705-4.542185,21.962705s15.646463-8.353437,21.937318-12.598775c5.539926-3.738579,10.948798-12.53141,17.517582-13.763814c3.575587-.670834,9.205732.789463,11.602555,3.526266c3.052044,3.484965,2.973904,10.629013,2.502676,15.237473-.5133,5.019912-3.452361,11.363984-6.028943,15.702672-2.746008,4.623983-8.480554,9.283859-11.619586,13.650581-4.563514,6.348327-11.1725,14.849331-13.428854,22.335036-1.239948,4.113667-.632606,14.307617-.632606,14.307617s7.779325-15.31169,12.989515-20.33842c4.992535-4.81674,13.325768-9.592864,19.92226-11.740581c6.277454-2.043843,16.122065-5.320039,21.902561-2.13106c3.671699,2.0256,6.10446,8.30046,6.274788,12.490379.379795,9.342647-5.893657,21.29964-10.393636,32.148026-4.489424,10.822939-7.19818,20.542335-12.948265,25.57366-9.42617,8.2479-28.95912,6.1934-40.87646,6.1934-60.96408,0-92.65266-29.10817-128.82279-74.32084-19.78119-24.72649-50.82398-45.86164-75.55952-65.65008" transform="translate(.000001 0)" fill="#091723" stroke-width="2.048"/><path d="M854.73827,483.11119c7.23816-7.23816,10.22548-18.45381,14.35293-27.53418.61618-1.3556,4.96117-8.55422,3.95438-9.81271-.29176-.3647-9.95591,4.12882-10.98438,4.54021-7.15059,2.86024-12.70866,6.89714-14.64584,14.64584-2.228563,8.914252-2.498936,28.002429,7.337774,18.169587" transform="translate(0 0.000001)" fill="#e63201" stroke-width="2.048"/><path d="M822.78423,425.62554c6.37564-6.37564,14.21467-12.49886,19.413-19.86316c1.23928-1.75565,2.574511-3.097702,3.657931-4.955002.52194-.89476,1.350059-3.204088,1.350059-3.204088s-1.70819,1.42684-2.0257,1.74436c-1.58068,1.58068-3.75037,2.66296-5.7395,3.65752-9.95719,4.9786-20.40475,10.08895-25.82773,20.25704-2.23369,4.18818-2.13824,8.77022-2.13824,13.39216c0,.36337.12399,4.78005.5627,4.67037.67321-.1683,2.42772-4.68663,2.75721-5.34561c1.91351-3.82702,5.10412-7.41118,8.10282-10.40987" fill="#e63201" stroke-width="2.048"/><path d="M758.842844,309.089575c0,0,2.024955,3.241313,2.620396,4.432195c2.40669,4.81338,5.12586,20.51289-5.09425,18.80954-9.88913-1.64819-8.6822-19.94265-7.44544-26.74481.2055-1.13022,2.54713-9.79663,2.54713-9.79663s.15413,3.34522.8817,4.80035c1.64521,3.29041,3.950464,5.779355,6.46578,8.42511" transform="translate(.000001 0)" fill="#e63201" stroke-width="2.048"/><path d="M631.14158,368.196901c0,0,22.21159-1.469391,31.316951.860116c6.3911,1.635093,19.570695,10.026961,19.570695,10.026961s4.226042-5.679129,5.640869-8.350907c3.929284-7.420109,6.420296-18.587496,10.379277-25.991803c2.13815-3.998887,8.560882-12.457394,8.560882-12.457394s2.545352,3.947072,3.213928,5.828612c.836903,2.355255,1.197848,5.71552,1.482753,8.198757.722656,6.298691,1.414011,14.778078,1.04665,21.107437-.263232,4.535297-1.169912,10.590723-2.494725,14.93619-.932833,3.05975-2.672828,7.021832-4.409473,9.708151-1.143392,1.768649-2.797325,4.245231-4.636627,5.271113-1.374872.766843-5.173499.878519-5.173499.878519s19.94952,29.113669,28.06264,41.876012c6.164567,9.697171,19.762391,32.810454,19.762391,32.810454s68.810377,20.896706,68.810377,20.896706-16.398792-40.303281-20.405531-58.434222c-2.416733-10.935988-4.328052-25.968236-3.690675-37.149926c1.486169-26.072294,15.044842-59.184257,18.393064-85.083342c1.250462-9.672544,1.518287-22.725626,1.437521-32.47833-.041495-5.010593-1.014798-16.671694-1.014798-16.671694s-5.741109,25.59126-9.278161,36.242813c-3.023827,9.106017-7.423313,21.239871-12.177585,29.574136-3.18508,5.583464-7.97187,12.982378-12.902441,17.106608-3.02857,2.53328-7.84949,5.285887-11.742672,5.943821-3.581477.605257-8.52991-.539362-11.999409-1.614486-2.569806-.796329-5.890476-2.37808-8.006624-4.039393-2.159498-1.695345-4.549172-4.593756-5.943821-6.95862-1.698848-2.880686-3.187416-7.173548-3.914224-10.43793-.834388-3.747566-1.127328-8.919789-1.014799-12.75747.231651-7.900198,1.988112-18.362444,3.624281-26.094826c1.667089-7.878508,5.470019-17.985026,7.393534-25.804883c2.231848-9.073355,5.002524-21.249641,6.289635-30.504384.927905-6.671931,1.68899-15.657996,1.638582-22.393954-.052316-6.990835-.850066-16.325655-2.048227-23.213246-1.08035-6.210357-5.329966-20.324839-5.329966-20.324839s-1.766025,26.171238-3.545687,37.256853c-1.318445,8.212665-3.579301,19.124274-6.144683,27.036604-2.541533,7.838774-6.816192,18.04096-10.787332,25.261474-4.67079,8.492651-11.188548,20.038771-18.297499,26.626958-1.077052.998153-2.820764,2.055468-4.233004,2.457873-1.614311.459983-3.958272.544575-5.592849.162814-1.718036-.401253-4.080596-1.389059-5.194483-2.757236-1.293165-1.588382-1.719495-4.515137-1.911679-6.554328-.401586-4.26108.053436-10.127151,1.365485-14.201044c1.148005-3.564537,4.106761-7.738477,6.281231-10.787332c5.717296-8.016301,16.164293-16.537061,21.438116-24.851828c2.009502-3.168203,5.084449-11.425588,5.084449-11.425588s-8.26625,8.577506-12.184972,11.835234c-5.954806,4.950373-14.514913,10.787436-21.06417,14.919402-4.315195,2.722483-10.723986,5.289743-14.848086,8.293843-3.306305,2.408397-7.751656,5.860401-9.97938,9.291039-1.777813,2.737787-3.115452,7.053993-3.533698,10.291456-.372522,2.883531-.036458,6.85644.714529,9.665273c1.526568,5.709656,5.891168,12.470214,8.54636,17.750416c1.278364,2.542197,3.496238,5.703368,4.406449,8.399383.908344,2.690483,1.545463,6.492829,1.583215,9.332259.059197,4.452336-.842178,10.420623-2.092609,14.694172-1.241651,4.24354-3.553244,9.806053-6.115038,13.409735-2.787782,3.92158-7.814557,8.104596-11.595767,11.07999-2.911073,2.290693-7.137778,4.898437-10.390535,6.670781-3.572822,1.946739-12.344441,5.617615-12.344441,5.617615s2.395305.099425,2.395305.099425" transform="translate(1.127197-4.73422)" fill="#e63201" stroke-width="0.5"/><path d="M631.14158,368.196901c0,0,16.068903-1.063026,26.474507.052671.304294.032627,16.775816-28.541695,27.379673-37.618646c6.432216-5.506007,17.092964-15.619928,25.107749-12.889956c5.088016,1.733065,10.758996,31.750795,19.13657,43.176975c3.527015,4.810498,9.570065,10.498798,14.913127,13.150667c5.209803,2.58573,13.216341,4.384776,19.005754,3.827338c5.552412-.534618,12.750526-3.707065,17.192474-7.081112c7.269034-5.521466,17.816432-20.691363,18.710384-23.994995c3.186902-11.777311,6.168043-23.313489,7.509709-33.691508c1.250462-9.672544,1.518287-22.725626,1.437521-32.47833-.041495-5.010593-1.014798-16.671694-1.014798-16.671694s-5.741109,25.59126-9.278161,36.242813c-3.023827,9.106017-7.423313,21.239871-12.177585,29.574136-3.18508,5.583464-7.97187,12.982378-12.902441,17.106608-3.02857,2.53328-7.84949,5.285887-11.742672,5.943821-3.581477.605257-8.52991-.539362-11.999409-1.614486-2.569806-.796329-5.890476-2.37808-8.006624-4.039393-2.159498-1.695345-4.549172-4.593756-5.943821-6.95862-1.698848-2.880686-3.187416-7.173548-3.914224-10.43793-.834388-3.747566-1.127328-8.919789-1.014799-12.75747.231651-7.900198,1.988112-18.362444,3.624281-26.094826c1.667089-7.878508,5.470019-17.985026,7.393534-25.804883c2.231848-9.073355,5.002524-21.249641,6.289635-30.504384.927905-6.671931,1.68899-15.657996,1.638582-22.393954-.052316-6.990835-.850066-16.325655-2.048227-23.213246-1.08035-6.210357-5.329966-20.324839-5.329966-20.324839s-1.766025,26.171238-3.545687,37.256853c-1.318445,8.212665-3.579301,19.124274-6.144683,27.036604-2.541533,7.838774-6.816192,18.04096-10.787332,25.261474-4.67079,8.492651-11.188548,20.038771-18.297499,26.626958-1.077052.998153-2.820764,2.055468-4.233004,2.457873-1.614311.459983-3.958272.544575-5.592849.162814-1.718036-.401253-4.080596-1.389059-5.194483-2.757236-1.293165-1.588382-1.719495-4.515137-1.911679-6.554328-.401586-4.26108.053436-10.127151,1.365485-14.201044c1.148005-3.564537,4.106761-7.738477,6.281231-10.787332c5.717296-8.016301,16.164293-16.537061,21.438116-24.851828c2.009502-3.168203,5.084449-11.425588,5.084449-11.425588s-8.26625,8.577506-12.184972,11.835234c-5.954806,4.950373-14.514913,10.787436-21.06417,14.919402-4.315195,2.722483-10.723986,5.289743-14.848086,8.293843-3.306305,2.408397-7.751656,5.860401-9.97938,9.291039-1.777813,2.737787-3.115452,7.053993-3.533698,10.291456-.372522,2.883531-.036458,6.85644.714529,9.665273c1.526568,5.709656,5.891168,12.470214,8.54636,17.750416c1.278364,2.542197,3.496238,5.703368,4.406449,8.399383.908344,2.690483,1.545463,6.492829,1.583215,9.332259.059197,4.452336-.842178,10.420623-2.092609,14.694172-1.241651,4.24354-3.553244,9.806053-6.115038,13.409735-2.787782,3.92158-7.814557,8.104596-11.595767,11.07999-2.911073,2.290693-7.137778,4.898437-10.390535,6.670781-3.572822,1.946739-12.344441,5.617615-12.344441,5.617615" transform="translate(1.127197-4.73422)" fill="#f25f04" stroke-width="0.5"/><path d="M807.391818,304.543583c.550872-8.00042.675842-16.816052.61723-23.893578-.041495-5.010593-1.014798-16.671694-1.014798-16.671694s-5.741109,25.59126-9.278161,36.242813c-3.023827,9.106017-7.423313,21.239871-12.177585,29.574136-3.18508,5.583464-7.97187,12.982378-12.902441,17.106608-3.02857,2.53328-7.84949,5.285887-11.742672,5.943821-3.581477.605257-8.52991-.539362-11.999409-1.614486-2.569806-.796329-5.890476-2.37808-8.006624-4.039393-2.159498-1.695345-4.549172-4.593756-5.943821-6.95862-1.410518-2.391774-2.830269-5.798954-3.650764-8.745013-.003158-.01134-1.886226,5.295506-1.837168,7.657412.059024,2.841725,1.211832,6.627988,2.591031,9.113283c2.246708,4.048533,6.475789,8.922485,10.364126,11.436277c3.359867,2.172139,8.699613,3.783278,12.687119,4.109912c4.263314.349227,10.172206-.431495,14.098936-2.128139c4.511453-1.949289,9.583593-6.47692,12.882225-10.119988c3.904905-4.312647,7.576011-11.28087,10.41151-16.360944c5.040067-9.029774,14.295496-19.904658,14.903364-30.656878" transform="translate(1.127197-4.73422)" fill="#fed250" stroke-width="0.5"/><path d="M683.19034,245.749754c-3.858077,3.359414-7.947841,10.477649-9.538203,15.623612-1.450352,4.69293-2.428789,11.528585-1.339557,16.318229c1.107398,4.869524,4.643477,11.082375,8.402671,14.369784c2.685131,2.348142,7.44298,4.064699,10.972586,4.580046c5.445251.795045,13.169096.203343,18.24138-1.930853c5.541574-2.331653,11.638407-8.117427,15.442252-12.773221c7.33538-8.978289,13.861747-23.340772,18.199688-34.092504c1.541528-3.820728,3.238547-9.52784,3.750807-13.21115.927905-6.671931,1.68899-15.657996,1.638582-22.393954-.052316-6.990835-.850066-16.325655-2.048227-23.213246-1.08035-6.210357-5.329966-20.324839-5.329966-20.324839s-.001055,9.927495-.933458,20.158627c-.147304,1.616347.788793,20.570888-.159749,29.313878-.86186,7.944018-3.170213,18.42481-5.570352,26.04646-1.215609,3.86017-3.46432,8.794648-5.246743,12.428047-1.978878,4.033863-4.584519,9.507479-7.346364,13.05152-1.967463,2.524678-5.234756,5.350612-7.737129,7.346365-3.318739,2.646842-10.775477,6.904753-11.781406,7.836992-.480241.445061-1.093024.901885-1.749865,1.30717-.816276.50366-1.700596.927724-2.483139,1.150703-1.614311.459983-3.958272.544575-5.592849.162814-1.718036-.401253-4.080596-1.389059-5.194483-2.757236-.340368-.41807-3.992748-5.745848-4.624169-8.608634-.620369-2.812678-.153236-6.794761.563786-9.584366.612086-2.381344,2.078945-5.410162,3.523664-7.399694c1.523912-2.098588,5.828436-5.328425,6.271756-5.95001c5.717296-8.016301,16.164293-16.537061,21.438116-24.851828c2.009502-3.168203,5.084449-11.425588,5.084449-11.425588s-8.26625,8.577506-12.184972,11.835234c-5.954806,4.950373-14.514913,10.787436-21.06417,14.919402-1.117327.704929-3.697066,2.093844-3.697066,2.093844" transform="translate(1.127197-4.73422)" fill="#fed250" stroke-width="0.5"/></g><g><path d="M100.436568,535.954885c0,0,170.597524-55.060374,170.597524-55.060374s16.851768-34.371094,37.862934-63.80784c9.980543-13.982789,18.965602-29.115964,27.532882-38.450918c8.711071-9.49163,16.921595-13.068335,16.921595-13.068335s49.102652-7.524555,75.854559,2.648289c22.347598,8.498036,23.141008,34.996375,23.141008,34.996375s8.772875-.209193,16.453768.806781c7.318037.967978,11.10255,2.254234,12.925545,3.66806c5.013951,3.888578,13.339989,15.490041,14.031786,32.25564.686471,16.63654-10.639095,34.045023-10.639095,34.045023s13.427274,14.170985,14.426034,28.902915c1.01165,14.92205-10.405049,30.407482-10.405049,30.407482s4.568989,10.263956,4.449434,20.691854c-.133498,11.644113-5.577733,23.480235-5.577733,23.480235s-28.66085,31.158552-63.383716,41.575949c-38.005732,11.402306-81.749802,2.258926-81.749802,2.258926s-51.38659,13.288312-98.02972,32.121351c-47.068883,19.004946-89.398174,43.556181-89.398174,43.556181s-.424438,14.749212-.424438,14.749212-.310047,2.087846-1.549681,3.165789c-1.200247,1.043692-3.331353,1.078588-3.331353,1.078588s-25.254047,0-25.254047,0-9.719145-2.237815-15.598087-8.276536c-6.526716-6.704099-9.281063-17.278779-9.281063-17.278779s.549476-154.715042.549476-154.715042" fill="#091723" stroke="#feffff" stroke-width="8"/><path d="M375.875939,442.984006c0,0,3.352511,11.214744,1.934541,13.105364-2.02313,2.69751-8.11944-.15663-9.50759,1.50914-.91293,1.09552,1.88594,5.35642,2.41463,6.48931c2.80268,6.00574,4.51102,14.10727,4.98016,20.67523c1.08002,15.12031-10.06416,29.98481-20.22248,40.14314-.794253.794253-28.909743,20.098688-28.909743,20.098688s5.8127,8.984959,5.8127,8.984959-26.478448,3.086508-26.478448,3.086508s4.010711,5.151316,4.010711,5.151316-75.344406,24.019385-75.344406,24.019385-119.376104,45.879361-119.376104,45.879361s0-64.437354,0-64.437354s158.298635-61.290899,158.298635-61.290899s32.411164,4.355825,32.411164,4.355825s57.18345-63.621076,57.18345-63.621076s12.79278-4.148897,12.79278-4.148897" transform="translate(.000001 0)" fill="#15263d" stroke-width="0.5"/><path d="M298.53979,534.47786c7.39396,0,3.89443-6.34063,11.67204-10.22943c24.02274-12.01137,36.27884-17.98447,47.34389-43.80293.971511-2.266861,1.809695-7.367888,2.427249-12.788949.661857-5.809952,1.142476-12.001041,3.50152-15.884857c1.516672-2.496975,3.018699-3.366682,7.553877-6.146076c4.783716-2.931711,11.097176-5.284265,11.097176-5.284265.217403-.133236-14.156001-6.177619-19.500037-10.009108-2.595089-1.86059-5.582528-4.968525-7.642661-7.408224-1.992136-2.359173-5.824512-8.485974-5.824512-8.485974s-50.234004,95.041088-50.234004,95.041088-21.724288-.632083-21.724288-.632083.939763,5.985305,5.045731,11.049574c6.027481,7.434247,16.284019,14.581234,16.284019,14.581234" fill="#37506e" stroke-width="0.5"/><path d="M347.56506,400.86464c0,6.99622-1.73654,18.85435.64124,25.39326.59309,1.63099,6.82487,1.67362,8.46442,2.05198c9.3477,2.15716,18.78401.42949,28.21473,1.53898c1.82046.21417,7.96975,3.38256,9.49041,2.05198c5.8762-5.14168-.69265-18.14167,9.87516-21.16105c7.44734-2.12781,13.89499,8.60996,19.49381,12.05538c2.85495,1.75689,7.30393.44427,6.92543-3.71921-.46093-5.0702-3.53826-24.15311-7.05368-27.31699-3.61026-3.24923-11.81921-2.30848-16.28759-2.30848-14.12012,0-30.46834-.48619-44.24583,2.69323-4.41119,1.01797.82391,7.76876-2.56498,11.15764-1.57046,1.57046-6.68843.61354-8.59267.2565-1.67907-.31482-2.34898-.16875-3.59097-1.41074" transform="translate(0 0.000001)" fill="#37506e" stroke-width="2.048"/><path d="M430.39671,421.94547c-8.02045,0-13.23547-5.30059-16.01984-12.26152-1.25528-3.13819-1.55314-14.13043-4.65092-13.2011-10.32384,3.09715-13.83219,27.47221-11.32775,34.98552c1.89585,5.68754,2.71837,12.63746,5.60033,17.92107c7.21483,13.22719,26.24636,23.97277,40.99444,25.31351c4.94634.44967,8.92507-.66014,12.32073-4.48027c9.06369-10.19665-8.61331-21.59264-12.54475-30.2418-2.67076-5.87567-4.00855-7.72576-1.56809-13.21679.09822-.22099.41917-1.97993.22401-2.24013-2.08076-2.77435-9.1884-1.43446-12.09672-2.01612" fill="#15263d" stroke-width="2.048"/><path d="M391.14617,465.784551c.54474,4.90275,8.328,18.818509,8.96795,18.978499c1.48767.37192,13.91371-3.83434,17.42293-4.86647c3.08124-.90625,6.94467-1.53148,10.17864-1.74708.274-.01827,5.03192-.55371,5.01336-.68364-.2738-1.91663-5.45901-5.1776-6.8364-6.4566-6.709888-6.230611-21.906863-15.907642-21.906863-15.907642-.036874-.036273-5.047433,1.197602-8.572335,4.150386-2.787648,2.335192-4.267282,6.532547-4.267282,6.532547" fill="#37506e" stroke-width="0.5"/><path d="M451.65818,424.22081c5.36321-2.68161,18.21707-7.77998,23.79593-3.59583c12.86729,9.65046,10.45742,45.36363-7.6147,48.64946-2.29145.41663-3.65199.60174-3.91311-2.00943-1.32142-13.21421-4.94057-22.09313-11.21053-33.73734-1.70362-3.16387-4.9791-7.73826-1.05759-9.30686" transform="translate(.000001 0)" fill="#fff" stroke-width="2.048"/><path d="M451.595922,426.49457c2.911755.890712,4.646298,4.25904,5.836958,6.13007c3.98737,6.26586,7.00944,12.5887,8.69469,19.89144.60807,2.63498.822,6.13966.37531,8.81979-.17024,1.02144-.30324,2.10296-.68807,3.06503-.18713.46784-.991697,2.930281-1.271197,2.511031-1.37992-2.06989-.410933-8.769541-1.230873-11.393371-2.23265-7.14447-4.7082-14.23287-8.06917-20.95482-1.18545-2.3709-2.993209-5.680049-4.591289-7.810819" transform="translate(.497709-1.127381)" fill="#71a2e7" stroke-width="2.048"/><path d="M448.23956,407.75711c0,0,2.04691,11.757519,3.719104,16.569923c2.90237,8.352725,10.29335,18.076925,12.76922,26.565849.885282,3.035332,1.345701,7.303602,1.256614,10.464144-.069543,2.467176-.819496,5.711262-1.439508,8.100274-.350596,1.350906-1.050085,3.338081-1.987281,4.37226-2.423858,2.674684-6.907873,4.426409-10.464078,5.044815-6.125374,1.065172-14.762942.226825-20.647843-1.77885-6.201823-2.113687-13.351228-7.598773-18.375636-11.804198-4.739963-3.967345-9.190955-11.238185-14.014316-15.103708-4.580114-3.670581-16.896372-9.863931-16.896372-9.863931s-9.989335-2.038714-17.110044-6.557402c-5.231976-3.320129-16.574904-15.501917-16.574904-15.501917s5.870733,3.735223,11.299797,6.298248c4.352175,2.054633,8.502716,3.050387,8.502716,3.050387s-1.472903-3.91428-1.947778-5.640285c-.593453-2.156997-1.514103-7.301823-1.514103-7.301823s3.691592,4.938833,5.480365,6.878241c1.501768,1.628234,5.384615,5.051932,5.384615,5.051932s-1.938702-10.440558-1.763772-14.954665c.117563-3.03375,1.959584-9.928558,1.959584-9.928558s.624085,6.575245,1.3199,9.308576c.590881,2.321122,1.544216,5.436046,2.795226,7.478525c2.629144,4.292508,11.331493,12.374603,11.331493,12.374603s-.560677-7.714033-.534342-11.025445c.028368-3.566943-.077461-8.399301.764393-11.865591.287553-1.183987,1.018275-2.665772,1.627007-3.721214.778165-1.34921,3.075994-4.182441,3.075994-4.182441s-.585966,5.251804-.64189,7.51332c-.038283,1.548115.184654,5.158656.184654,5.158656s4.215761-7.619966,6.587541-10.47614c1.247046-1.501733,4.778045-4.416698,4.778045-4.416698s-3.201224,7.008088-4.308782,10.114888c-.736983,2.067304-1.763778,4.848796-2.037188,7.026441-.590953,4.706802-.664557,11.208728.512165,15.804219c1.434878,5.603678,5.383712,12.470595,8.714346,17.199967c3.64866,5.180957,9.342527,11.688997,14.524047,15.336858c5.249893,3.695996,13.196056,8.047861,19.591508,8.613507c3.152398.278814,7.55383-.831288,10.25218-2.484847c1.835984-1.125097,4.442905-4.712069,5.545382-6.303193.329488-.475527-23.150288-50.27723-23.150288-50.27723" fill="#091723" stroke-width="0.5"/><path d="M115.189911,551.207906c0,0,0-3.401027,0-3.401027s159.986995-51.601198,159.986995-51.601198s10.491574,6.06073,10.491574,6.06073-1.650076-16.319177,8.506013-30.802642c2.990444-4.264633,24.736268-40.488226,41.074037-64.854239c8.159877-12.169572,16.710818-21.747169,17.42783-22.177376c16.38448-9.83069,70.772719-7.000874,80.106371,1.767102c6.260473,5.881051,9.380542,38.092397,9.380542,38.092397s-7.622966.276216-10.700452-.003554c-7.8469-.71335-10.370725-31.395012-10.370725-31.395012s-55.328256.659956-55.328256.659956s0,18.290186,0,18.290186-12.175732-7.636624-12.175732-7.636624-4.034411,8.087859-4.895176,11.831403c-2.177869,9.471739-.210972,22.994407-2.630387,32.407344-2.688551,10.460032-9.738513,23.002673-14.749302,32.449158-3.96787,7.480345-9.488435,17.425384-14.723672,24.080595-1.375736,1.748882-3.341202,4.088614-5.238912,5.250481-1.832086,1.121688-4.70952,1.770462-6.814379,2.199755-2.624254.535226-6.218572.975149-8.891353.803622-5.473638-.351273-17.849035-3.959781-17.849035-3.959781s2.263413,5.934452,3.736661,8.201659c1.862795,2.866689,5.10858,6.14374,7.55683,8.529947c2.429573,2.368004,5.973506,5.200459,8.654537,7.279484c3.543628,2.747933,12.166501,8.68351,12.166501,8.68351s-10.292404-3.175855-14.265494-5.458791c-3.330908-1.913939-7.442592-5.14054-9.976447-8.028046-2.353744-2.682256-4.578113-6.973931-6.190259-10.157576-1.532718-3.026793-4.301315-10.459223-4.301315-10.459223s-159.986995,49.216198-159.986995,49.216198s0-9.269465,0-9.269465" transform="translate(0 0.000001)" fill="#fff" stroke-width="0.1"/><path d="M115.18991,557.076344c0,0,0,35.607974,0,35.607974s159.88979-65.468451,159.88979-65.468451.097205-19.355721.097205-19.355721-159.986995,49.216198-159.986995,49.216198s0,2.960929,0,2.960929" transform="translate(.000001 0.000001)" fill="#37506e" stroke-width="2.048"/><path d="M275.50228,524.88234c0,0,3.731745,10.015054,9.513716,17.081443c6.036251,7.377154,14.063204,12.026729,13.962564,12.144137c0,0-11.444146-1.068985-17.897732-9.103042-5.131749-6.388506-5.578548-20.122538-5.578548-20.122538" fill="#091723" stroke-width="2.048"/><path d="M115.189911,602.22125c0,0,0,15.172412,0,15.172412s155.550748-68.850602,155.550748-68.850602-6.737236-6.579277-6.737236-6.579277-148.813512,60.257467-148.813512,60.257467s0,6.420246,0,6.420246" fill="#37506e" stroke-width="2.048"/><path d="M115.189911,602.22125c0,0,139.614108-56.53245,139.614108-56.53245s-11.697987,9.080363-75.537147,34.461375c-12.528735,4.981143-64.076961,22.071075-64.076961,22.071075" fill="#fff" stroke-width="0.5"/><path d="M210.87789,583.59747c0,0,55.51564-21.39554,55.5285-21.36981c0,0-1.97331,2.07817-2.39276,2.39276-2.90899,2.18174-5.59151,4.07464-8.82845,5.69312-10.73927,5.36964-21.60095,7.80044-33.00356,11.22121-1.5338.46014-11.30373,2.06272-11.30373,2.06272s55.528501-21.369809,55.528501-21.369809" fill="#fff" stroke-width="2.048"/><path d="M428.59943,428.63675c2.16966-1.351756,9.33282-5.0134,14.3269-2.28935c2.75545,1.50297,4.0689,5.56416,5.4649,8.1235c3.32172,6.08982,8.82272,14.82974,9.96975,21.7119.5559,3.33539.66695,6.81959-2.6586,8.93585-1.88672,1.20064-4.9634.96422-7.0896.81235-12.01975-.85855-15.888037-8.266278-20.401677-18.798098-2.85047-6.6511-7.251793-13.912082.388327-18.496152" transform="translate(0 0.000001)" fill="#091723" stroke-width="0.5"/><path d="M436.01549,432.27469c2.453304-.062494,8.066178-.545365,8.066178-.545365s4.966042,8.970993,8.417752,17.255105c.9765,2.3436,5.00516,9.07004,1.24194,10.95165-10.14718,5.07359-20.693-4.35815-23.48396-13.66134-1.91849-6.39495-3.41099-14.00005,5.75809-14.00005" transform="translate(.000001 0.000001)" fill="#fff" stroke-width="2.048"/><path d="M463.632789,570.313539c0,0,0,3.641476,0,3.641476s6.951781,2.650224,6.951781,2.650224s6.098807-7.090834,7.859336-10.650024c1.849826-3.739717,3.984126-9.183366,3.882824-13.354346-.115905-4.772218-2.242004-11.28251-5.17904-15.045663-2.885492-3.697112-8.575884-7.301529-13.102996-8.526259-6.385537-1.727494-15.494866.007633-22.024391,1.068114-5.86338.95229-13.544931,3.153568-19.064432,5.349289-5.729533,2.279274-13.288367,5.825694-18.19638,9.558527-3.954356,3.00752-11.336901,12.071467-11.336901,12.071467s0,3.486597,0,3.486597" transform="translate(0 0.000001)" fill="#fff" stroke-width="0.5"/><path d="M198.15755,614.51919c9.2778-3.71113,17.51676-7.46967,26.68253-11.47969c3.13288-1.37064,14.27205-5.73985,14.27205-5.73985s-56.70038,26.062-56.70038,26.062s12.20819-7.42742,15.7458-8.84246" fill="#37506e" stroke-width="2.048"/><path d="M240.545523,638.168392c0,0,78.855484-33.273506,78.855484-33.273506s-8.437566-8.262831-8.437566-8.262831s11.185901,3.635055,16.095239,4.750749c3.223956.732675,7.610691,1.262102,10.879931,1.754828c8.04473,1.212468,26.856061,3.764526,26.856061,3.764526s16.982643,2.199823,24.266826,1.739337c9.780786-.618314,18.035184-1.49424,32.030598-6.420246c13.9703-4.917166,23.900874-13.266113,23.900874-13.266113s4.427307,3.111621,4.427307,3.111621-13.299523,8.646244-19.345242,11.731122c-2.991261,1.526315-7.113296,3.336105-10.316685,4.343868-3.503222,1.102088-8.364285,1.867326-11.96998,2.564553-3.270503.632412-7.625359,1.57645-10.941742,1.889084-3.676397.346572-8.615318.286783-12.307206.209484-8.330512-.17442-19.413407-1.065942-27.726314-1.634649-8.701758-.595309-28.985888-2.257439-28.985888-2.257439s-19.776017,7.741184-40.561839,14.698342c-22.788012,7.627304-46.719858,14.55727-46.719858,14.55727" transform="translate(0 0.000001)" fill="#71a2e7" stroke-width="0.5"/><path d="M432.59658,579.597062c0,0,16.54922,1.958488,21.5331-.118122c3.34171-1.39238,9.21159-5.51121,9.21159-5.51121s7.2433,2.63751,7.2433,2.63751-4.777757,4.035135-9.954065,7.816673c-5.401061,3.945731-11.210228,7.644845-11.210228,7.644845s-4.427307-3.111621-4.427307-3.111621-12.39639-9.358077-12.39639-9.358077" fill="#15263d" stroke-width="2.048"/><path d="M400.11412,577.84232c0,0,13.22432-4.67304,19.48165-6.0139c8.56581-1.83553,18.95491-1.94816,27.69783-1.94816c4.37094,0,8.68378.42351,13.04424.42351.95398,0,3.26444.70114,4.06574,0c.59806-.52331,1.97876-5.39475,1.35525-5.9292-1.14668-.98287-2.77624-.25159-4.06574-1.86346-5.23235-6.54045-2.92216-15.90699-5.9292-23.12387-.93873-2.25296-3.60685-2.95065-4.82806-.50822-1.36973,2.73946.28054,21.50997,0,21.42981-6.16688-5.336911-4.76289-24.20902-5.50569-24.47912-2.74257-.9973-7.49595.20466-10.33375.67762-13.03463,2.17243-22.83547,8.16128-33.03411,16.09354-1.22563.95327-8.63969,7.96207-8.63969,7.96207s6.69153,17.27938,6.69153,17.27938" fill="#37506e" stroke-width="0.5"/><path d="M408.524246,575.008127c0,0,.358064-.111431.358064-.111431s8.19952-2.529573,10.71346-3.068276c8.56581-1.83553,18.95491-1.94816,27.69783-1.94816.553205,0,1.793759-3.972076,1.09763-5.50569-1.457104-3.21009-10.18722-4.850964-10.18722-4.850964s.754132-12.282313.754132-12.282313s3.968188-7.725424,3.347702-8.825932c-.579005-1.026937-6.583715-2.012319-7.209454-1.908031-13.03463,2.17243-22.83547,8.16128-33.03411,16.09354-.701293.545452-5.633951,5.136707-5.633951,5.136707" fill="#15263d" stroke-width="0.5"/><path d="M402.3347,572.75875c2.5176-.27974,9.41528-3.76887,9.61384-4.166.33192-.66385-4.26088-12.82502-6.76975-13.94008-.52626-.23389-6.94522,3.793084-7.60835,5.384604-.32438.7785,4.134495,9.316536,4.815475,12.721476" transform="translate(.000001 0)" fill="#091723" stroke-width="2.048"/><path d="M398.90069,534.38395c0,0,9.774342-4.966007,19.446694-8.383161c4.996531-1.765229,10.054861-3.240156,13.537224-4.041128c11.34862-2.610275,38.566112-3.640291,38.566112-3.640291s-.381081,5.853531-.381081,5.853531s6.219271,3.042967,6.219271,3.042967s6.304579-6.683063,8.029828-10.165412c1.464715-2.95647,2.542909-7.358541,2.735904-10.652302.180485-3.080263-.307621-7.2984-1.377642-10.192472-1.281329-3.465594-4.342418-7.487141-6.686991-10.342858-1.358785-1.655015-3.328052-3.803511-5.124885-4.968313-1.861076-1.206448-4.649176-2.638657-6.864534-2.745011-8.235853-.395383-18.39665,5.65105-26.379921,7.713324-9.102963,2.351518-21.68226,2.077779-30.576167,6.873774-8.631717,4.654612-20.983004,18.017381-20.983004,18.017381s.6392,3.542234.6392,3.542234s1.81536,4.976115,4.049332,9.876688c2.362431,5.182369,5.15066,10.211049,5.15066,10.211049" fill="#fff" stroke-width="0.5"/><path d="M398.90069,534.38395c0,0,9.774342-4.966007,19.446694-8.383161c4.996531-1.765229,10.054861-2.428337,13.537224-3.229309c11.34862-2.610275,38.566112-4.40159,38.566112-4.40159s.208877-4.707543-.124618-5.140926c-.324781-.422059-3.91483.235011-5.28478-1.722059-3.36283-4.80404-6.931922-22.804095-8.962202-22.804095-3.471138.047509.439431,20.231092-2.4637,20.63351-4.003439.228319-3.348365-18.524837-6.242555-20.333707-1.10721-.69201-5.433996-.082058-6.752196.082722-8.242749,1.030342-19.006432,1.698625-27.900339,6.49462-13.040433,7.03199-23.019632,18.716258-23.019632,18.716258s1.491469,4.976115,3.725441,9.876688c2.362431,5.182369,5.474551,10.211049,5.474551,10.211049" fill="#37506e" stroke-width="0.5"/><path d="M440.8826,510.88496c0-4.65471.72637-9.06836.72637-13.69707c0-.6898.68417-3.77775.20753-4.2544-1.59764-1.59764-10.73135.87029-13.07448,1.03766-11.21774.80127-19.99228,4.91164-28.63935,11.8293-1.85861,1.48689-6.931607,4.470882-7.739367,6.624892-.0654.17441,8.061223,15.633676,8.080856,15.637488c4.12.8,12.973151-1.34717,17.506211-2.85819c6.21362-2.07121,13.79337-2.614478,20.25364-3.691188c2.370299-.39505,11.060062-1.230834,11.29115-1.808402c1.043537-2.608155-8.612559-7.70505-8.61256-8.82009" transform="translate(.000001 0)" fill="#15263d" stroke-width="0.56"/><path d="M393.81378,514.73832c2.1709-.72364,7.33167-4.59027,7.33167-4.59027s8.22422,13.00575,8.22422,13.00575-8.92551,4.90903-8.92551,4.90903-1.55466-2.5486-1.7851-2.93267c-1.92851-3.21419-3.53143-6.69281-4.90903-10.13684" fill="#091723" stroke-width="0.5"/><path d="M391.14617,465.78455c0,0,4.62031-6.416652,7.75452-8.610592.67979-.47585,5.09784-1.811968,5.09784-1.811968s-4.59769-5.08621-4.59769-5.08621-3.313172,2.507208-5.974701,5.08621c-2.71596,2.631744-4.781379,5.33635-4.781379,5.33635s2.50141,5.086211,2.50141,5.086211" fill="#fff" stroke-width="0.5"/><path d="M394.862051,464.087819c1.459594,0,4.731209-1.393674,5.582109-2.730794.51578-.81051,1.11569-1.619537,1.75814-1.585515.12475.031189,2.145412,4.095562,4.49691,7.88504c2.447431,3.944077,5.22519,7.621323,5.13515,7.75639-1.45521,2.18281-7.19061,5.27143-9.84515,4.47507-2.29747-.68924-4.04299-6.21454-4.73079-8.14036-.43563-1.21977-3.242929-6.531071-2.396369-7.659831" transform="translate(0 0.000001)" fill="#091723" stroke-width="2.048"/></g><g transform="matrix(-1 0 0 1 1019.20794 0)"><path d="M100.436568,535.954885c0,0,170.597524-55.060374,170.597524-55.060374s16.851768-34.371094,37.862934-63.80784c9.980543-13.982789,18.965602-29.115964,27.532882-38.450918c8.711071-9.49163,16.921595-13.068335,16.921595-13.068335s49.102652-7.524555,75.854559,2.648289c22.347598,8.498036,23.141008,34.996375,23.141008,34.996375s8.772875-.209193,16.453768.806781c7.318037.967978,11.10255,2.254234,12.925545,3.66806c5.013951,3.888578,13.339989,15.490041,14.031786,32.25564.686471,16.63654-10.639095,34.045023-10.639095,34.045023s13.427274,14.170985,14.426034,28.902915c1.01165,14.92205-10.405049,30.407482-10.405049,30.407482s4.568989,10.263956,4.449434,20.691854c-.133498,11.644113-5.577733,23.480235-5.577733,23.480235s-28.66085,31.158552-63.383716,41.575949c-38.005732,11.402306-81.749802,2.258926-81.749802,2.258926s-51.38659,13.288312-98.02972,32.121351c-47.068883,19.004946-89.398174,43.556181-89.398174,43.556181s-.424438,14.749212-.424438,14.749212-.310047,2.087846-1.549681,3.165789c-1.200247,1.043692-3.331353,1.078588-3.331353,1.078588s-25.254047,0-25.254047,0-9.719145-2.237815-15.598087-8.276536c-6.526716-6.704099-9.281063-17.278779-9.281063-17.278779s.549476-154.715042.549476-154.715042" fill="#091723" stroke="#feffff" stroke-width="8"/><path d="M375.875939,442.984006c0,0,3.352511,11.214744,1.934541,13.105364-2.02313,2.69751-8.11944-.15663-9.50759,1.50914-.91293,1.09552,1.88594,5.35642,2.41463,6.48931c2.80268,6.00574,4.51102,14.10727,4.98016,20.67523c1.08002,15.12031-10.06416,29.98481-20.22248,40.14314-.794253.794253-28.909743,20.098688-28.909743,20.098688s5.8127,8.984959,5.8127,8.984959-26.478448,3.086508-26.478448,3.086508s4.010711,5.151316,4.010711,5.151316-75.344406,24.019385-75.344406,24.019385-119.376104,45.879361-119.376104,45.879361s0-64.437354,0-64.437354s158.298635-61.290899,158.298635-61.290899s32.411164,4.355825,32.411164,4.355825s57.18345-63.621076,57.18345-63.621076s12.79278-4.148897,12.79278-4.148897" transform="translate(.000001 0)" fill="#b1c7dc" stroke-width="0.5"/><path d="M298.53979,534.47786c7.39396,0,3.89443-6.34063,11.67204-10.22943c24.02274-12.01137,36.27884-17.98447,47.34389-43.80293.971511-2.266861,1.809695-7.367888,2.427249-12.788949.661857-5.809952,1.142476-12.001041,3.50152-15.884857c1.516672-2.496975,3.018699-3.366682,7.553877-6.146076c4.783716-2.931711,11.097176-5.284265,11.097176-5.284265.217403-.133236-14.156001-6.177619-19.500037-10.009108-2.595089-1.86059-5.582528-4.968525-7.642661-7.408224-1.992136-2.359173-5.824512-8.485974-5.824512-8.485974s-50.234004,95.041088-50.234004,95.041088-21.724288-.632083-21.724288-.632083.939763,5.985305,5.045731,11.049574c6.027481,7.434247,16.284019,14.581234,16.284019,14.581234" fill="#c2d5e4" stroke-width="0.5"/><path d="M347.56506,400.86464c0,6.99622-1.73654,18.85435.64124,25.39326.59309,1.63099,6.82487,1.67362,8.46442,2.05198c9.3477,2.15716,18.78401.42949,28.21473,1.53898c1.82046.21417,7.96975,3.38256,9.49041,2.05198c5.8762-5.14168-.69265-18.14167,9.87516-21.16105c7.44734-2.12781,13.89499,8.60996,19.49381,12.05538c2.85495,1.75689,7.30393.44427,6.92543-3.71921-.46093-5.0702-3.53826-24.15311-7.05368-27.31699-3.61026-3.24923-11.81921-2.30848-16.28759-2.30848-14.12012,0-30.46834-.48619-44.24583,2.69323-4.41119,1.01797.82391,7.76876-2.56498,11.15764-1.57046,1.57046-6.68843.61354-8.59267.2565-1.67907-.31482-2.34898-.16875-3.59097-1.41074" transform="translate(0 0.000001)" fill="#c2d5e4" stroke-width="2.048"/><path d="M430.39671,421.94547c-8.02045,0-13.23547-5.30059-16.01984-12.26152-1.25528-3.13819-1.55314-14.13043-4.65092-13.2011-10.32384,3.09715-13.83219,27.47221-11.32775,34.98552c1.89585,5.68754,2.71837,12.63746,5.60033,17.92107c7.21483,13.22719,26.24636,23.97277,40.99444,25.31351c4.94634.44967,8.92507-.66014,12.32073-4.48027c9.06369-10.19665-8.61331-21.59264-12.54475-30.2418-2.67076-5.87567-4.00855-7.72576-1.56809-13.21679.09822-.22099.41917-1.97993.22401-2.24013-2.08076-2.77435-9.1884-1.43446-12.09672-2.01612" fill="#b1c7dc" stroke-width="2.048"/><path d="M391.14617,465.784551c.54474,4.90275,8.328,18.818509,8.96795,18.978499c1.48767.37192,13.91371-3.83434,17.42293-4.86647c3.08124-.90625,6.94467-1.53148,10.17864-1.74708.274-.01827,5.03192-.55371,5.01336-.68364-.2738-1.91663-5.45901-5.1776-6.8364-6.4566-6.709888-6.230611-21.906863-15.907642-21.906863-15.907642-.036874-.036273-5.047433,1.197602-8.572335,4.150386-2.787648,2.335192-4.267282,6.532547-4.267282,6.532547" fill="#c2d5e4" stroke-width="0.5"/><path d="M451.65818,424.22081c5.36321-2.68161,18.21707-7.77998,23.79593-3.59583c12.86729,9.65046,10.45742,45.36363-7.6147,48.64946-2.29145.41663-3.65199.60174-3.91311-2.00943-1.32142-13.21421-4.94057-22.09313-11.21053-33.73734-1.70362-3.16387-4.9791-7.73826-1.05759-9.30686" transform="translate(.000001 0)" fill="#fff" stroke-width="2.048"/><path d="M451.595922,426.49457c2.911755.890712,4.646298,4.25904,5.836958,6.13007c3.98737,6.26586,7.00944,12.5887,8.69469,19.89144.60807,2.63498.822,6.13966.37531,8.81979-.17024,1.02144-.30324,2.10296-.68807,3.06503-.18713.46784-.991697,2.930281-1.271197,2.511031-1.37992-2.06989-.410933-8.769541-1.230873-11.393371-2.23265-7.14447-4.7082-14.23287-8.06917-20.95482-1.18545-2.3709-2.993209-5.680049-4.591289-7.810819" transform="translate(.497709-1.127381)" fill="#71a2e7" stroke-width="2.048"/><path d="M448.23956,407.75711c0,0,2.04691,11.757519,3.719104,16.569923c2.90237,8.352725,10.29335,18.076925,12.76922,26.565849.885282,3.035332,1.345701,7.303602,1.256614,10.464144-.069543,2.467176-.819496,5.711262-1.439508,8.100274-.350596,1.350906-1.050085,3.338081-1.987281,4.37226-2.423858,2.674684-6.907873,4.426409-10.464078,5.044815-6.125374,1.065172-14.762942.226825-20.647843-1.77885-6.201823-2.113687-13.351228-7.598773-18.375636-11.804198-4.739963-3.967345-9.190955-11.238185-14.014316-15.103708-4.580114-3.670581-16.896372-9.863931-16.896372-9.863931s-9.989335-2.038714-17.110044-6.557402c-5.231976-3.320129-16.574904-15.501917-16.574904-15.501917s5.870733,3.735223,11.299797,6.298248c4.352175,2.054633,8.502716,3.050387,8.502716,3.050387s-1.472903-3.91428-1.947778-5.640285c-.593453-2.156997-1.514103-7.301823-1.514103-7.301823s3.691592,4.938833,5.480365,6.878241c1.501768,1.628234,5.384615,5.051932,5.384615,5.051932s-1.938702-10.440558-1.763772-14.954665c.117563-3.03375,1.959584-9.928558,1.959584-9.928558s.624085,6.575245,1.3199,9.308576c.590881,2.321122,1.544216,5.436046,2.795226,7.478525c2.629144,4.292508,11.331493,12.374603,11.331493,12.374603s-.560677-7.714033-.534342-11.025445c.028368-3.566943-.077461-8.399301.764393-11.865591.287553-1.183987,1.018275-2.665772,1.627007-3.721214.778165-1.34921,3.075994-4.182441,3.075994-4.182441s-.585966,5.251804-.64189,7.51332c-.038283,1.548115.184654,5.158656.184654,5.158656s4.215761-7.619966,6.587541-10.47614c1.247046-1.501733,4.778045-4.416698,4.778045-4.416698s-3.201224,7.008088-4.308782,10.114888c-.736983,2.067304-1.763778,4.848796-2.037188,7.026441-.590953,4.706802-.664557,11.208728.512165,15.804219c1.434878,5.603678,5.383712,12.470595,8.714346,17.199967c3.64866,5.180957,9.342527,11.688997,14.524047,15.336858c5.249893,3.695996,13.196056,8.047861,19.591508,8.613507c3.152398.278814,7.55383-.831288,10.25218-2.484847c1.835984-1.125097,4.442905-4.712069,5.545382-6.303193.329488-.475527-23.150288-50.27723-23.150288-50.27723" fill="#091723" stroke-width="0.5"/><path d="M115.189911,551.207906c0,0,0-3.401027,0-3.401027s159.986995-51.601198,159.986995-51.601198s10.491574,6.06073,10.491574,6.06073-1.650076-16.319177,8.506013-30.802642c2.990444-4.264633,24.736268-40.488226,41.074037-64.854239c8.159877-12.169572,16.710818-21.747169,17.42783-22.177376c16.38448-9.83069,70.772719-7.000874,80.106371,1.767102c6.260473,5.881051,9.380542,38.092397,9.380542,38.092397s-7.622966.276216-10.700452-.003554c-7.8469-.71335-10.370725-31.395012-10.370725-31.395012s-55.328256.659956-55.328256.659956s0,18.290186,0,18.290186-12.175732-7.636624-12.175732-7.636624-4.034411,8.087859-4.895176,11.831403c-2.177869,9.471739-.210972,22.994407-2.630387,32.407344-2.688551,10.460032-9.738513,23.002673-14.749302,32.449158-3.96787,7.480345-9.488435,17.425384-14.723672,24.080595-1.375736,1.748882-3.341202,4.088614-5.238912,5.250481-1.832086,1.121688-4.70952,1.770462-6.814379,2.199755-2.624254.535226-6.218572.975149-8.891353.803622-5.473638-.351273-17.849035-3.959781-17.849035-3.959781s2.263413,5.934452,3.736661,8.201659c1.862795,2.866689,5.10858,6.14374,7.55683,8.529947c2.429573,2.368004,5.973506,5.200459,8.654537,7.279484c3.543628,2.747933,12.166501,8.68351,12.166501,8.68351s-10.292404-3.175855-14.265494-5.458791c-3.330908-1.913939-7.442592-5.14054-9.976447-8.028046-2.353744-2.682256-4.578113-6.973931-6.190259-10.157576-1.532718-3.026793-4.301315-10.459223-4.301315-10.459223s-159.986995,49.216198-159.986995,49.216198s0-9.269465,0-9.269465" transform="translate(0 0.000001)" fill="#fff" stroke-width="0.1"/><path d="M115.18991,557.076344c0,0,0,35.607974,0,35.607974s159.88979-65.468451,159.88979-65.468451.097205-19.355721.097205-19.355721-159.986995,49.216198-159.986995,49.216198s0,2.960929,0,2.960929" transform="translate(.000001 0.000001)" fill="#c2d5e4" stroke-width="2.048"/><path d="M275.176906,507.860147c0,0,4.057119,27.037247,9.83909,34.103636c6.036251,7.377154,14.063204,12.026729,13.962564,12.144137c0,0-3.940268,1.866432-8.565403-.118083-3.169614-1.359991-6.708078-5.718034-9.332329-8.984959-5.131749-6.388506-6.001127-37.144731-6.001127-37.144731" fill="#091723" stroke-width="2.048"/><path d="M115.189911,602.22125c0,0,0,15.172412,0,15.172412s155.550748-68.850602,155.550748-68.850602-6.737236-6.579277-6.737236-6.579277-148.813512,60.257467-148.813512,60.257467s0,6.420246,0,6.420246" fill="#c2d5e4" stroke-width="2.048"/><path d="M115.189911,602.22125c0,0,139.614108-56.53245,139.614108-56.53245s-11.697987,9.080363-75.537147,34.461375c-12.528735,4.981143-64.076961,22.071075-64.076961,22.071075" fill="#fff" stroke-width="0.5"/><path d="M210.87789,583.59747c0,0,55.51564-21.39554,55.5285-21.36981c0,0-1.97331,2.07817-2.39276,2.39276-2.90899,2.18174-5.59151,4.07464-8.82845,5.69312-10.73927,5.36964-21.60095,7.80044-33.00356,11.22121-1.5338.46014-11.30373,2.06272-11.30373,2.06272s55.528501-21.369809,55.528501-21.369809" fill="#fff" stroke-width="2.048"/><path d="M428.59943,428.63675c2.16966-1.351756,9.33282-5.0134,14.3269-2.28935c2.75545,1.50297,4.0689,5.56416,5.4649,8.1235c3.32172,6.08982,8.82272,14.82974,9.96975,21.7119.5559,3.33539.66695,6.81959-2.6586,8.93585-1.88672,1.20064-4.9634.96422-7.0896.81235-12.01975-.85855-15.888037-8.266278-20.401677-18.798098-2.85047-6.6511-7.251793-13.912082.388327-18.496152" transform="translate(0 0.000001)" fill="#091723" stroke-width="0.5"/><path d="M436.01549,432.27469c2.453304-.062494,8.066178-.545365,8.066178-.545365s4.966042,8.970993,8.417752,17.255105c.9765,2.3436,5.00516,9.07004,1.24194,10.95165-10.14718,5.07359-20.693-4.35815-23.48396-13.66134-1.91849-6.39495-3.41099-14.00005,5.75809-14.00005" transform="translate(.000001 0.000001)" fill="#fff" stroke-width="2.048"/><path d="M463.632789,570.313539c0,0,0,3.641476,0,3.641476s6.951781,2.650224,6.951781,2.650224s6.098807-7.090834,7.859336-10.650024c1.849826-3.739717,3.984126-9.183366,3.882824-13.354346-.115905-4.772218-2.242004-11.28251-5.17904-15.045663-2.885492-3.697112-8.575884-7.301529-13.102996-8.526259-6.385537-1.727494-15.494866.007633-22.024391,1.068114-5.86338.95229-13.544931,3.153568-19.064432,5.349289-5.729533,2.279274-13.288367,5.825694-18.19638,9.558527-3.954356,3.00752-11.336901,12.071467-11.336901,12.071467s0,3.486597,0,3.486597" transform="translate(0 0.000001)" fill="#fff" stroke-width="0.5"/><path d="M198.15755,614.51919c9.2778-3.71113,17.51676-7.46967,26.68253-11.47969c3.13288-1.37064,14.27205-5.73985,14.27205-5.73985s-56.70038,26.062-56.70038,26.062s12.20819-7.42742,15.7458-8.84246" fill="#37506e" stroke-width="2.048"/><path d="M240.545523,638.168392c0,0,78.855484-33.273506,78.855484-33.273506s-8.437566-8.262831-8.437566-8.262831s11.185901,3.635055,16.095239,4.750749c3.223956.732675,7.610691,1.262102,10.879931,1.754828c8.04473,1.212468,26.856061,3.764526,26.856061,3.764526s16.982643,2.199823,24.266826,1.739337c9.780786-.618314,18.035184-1.49424,32.030598-6.420246c13.9703-4.917166,23.900874-13.266113,23.900874-13.266113s4.427307,3.111621,4.427307,3.111621-13.299523,8.646244-19.345242,11.731122c-2.991261,1.526315-7.113296,3.336105-10.316685,4.343868-3.503222,1.102088-8.364285,1.867326-11.96998,2.564553-3.270503.632412-7.625359,1.57645-10.941742,1.889084-3.676397.346572-8.615318.286783-12.307206.209484-8.330512-.17442-19.413407-1.065942-27.726314-1.634649-8.701758-.595309-28.985888-2.257439-28.985888-2.257439s-19.776017,7.741184-40.561839,14.698342c-22.788012,7.627304-46.719858,14.55727-46.719858,14.55727" transform="translate(0 0.000001)" fill="#71a2e7" stroke-width="0.5"/><path d="M432.59658,579.597062c0,0,16.54922,1.958488,21.5331-.118122c3.34171-1.39238,9.21159-5.51121,9.21159-5.51121s7.2433,2.63751,7.2433,2.63751-4.777757,4.035135-9.954065,7.816673c-5.401061,3.945731-11.210228,7.644845-11.210228,7.644845s-4.427307-3.111621-4.427307-3.111621-12.39639-9.358077-12.39639-9.358077" fill="#b1c7dc" stroke-width="2.048"/><path d="M400.11412,577.84232c0,0,13.22432-4.67304,19.48165-6.0139c8.56581-1.83553,18.95491-1.94816,27.69783-1.94816c4.37094,0,8.68378.42351,13.04424.42351.95398,0,3.26444.70114,4.06574,0c.59806-.52331,1.97876-5.39475,1.35525-5.9292-1.14668-.98287-2.77624-.25159-4.06574-1.86346-5.23235-6.54045-2.92216-15.90699-5.9292-23.12387-.93873-2.25296-3.60685-2.95065-4.82806-.50822-1.36973,2.73946.28054,21.50997,0,21.42981-6.16688-5.336911-4.76289-24.20902-5.50569-24.47912-2.74257-.9973-7.49595.20466-10.33375.67762-13.03463,2.17243-22.83547,8.16128-33.03411,16.09354-1.22563.95327-8.63969,7.96207-8.63969,7.96207s6.69153,17.27938,6.69153,17.27938" fill="#c2d5e4" stroke-width="0.5"/><path d="M408.524246,575.008127c0,0,.358064-.111431.358064-.111431s8.19952-2.529573,10.71346-3.068276c8.56581-1.83553,18.95491-1.94816,27.69783-1.94816.553205,0,1.793759-3.972076,1.09763-5.50569-1.457104-3.21009-10.18722-4.850964-10.18722-4.850964s.754132-12.282313.754132-12.282313s3.968188-7.725424,3.347702-8.825932c-.579005-1.026937-6.583715-2.012319-7.209454-1.908031-13.03463,2.17243-22.83547,8.16128-33.03411,16.09354-.701293.545452-5.633951,5.136707-5.633951,5.136707" fill="#b1c7dc" stroke-width="0.5"/><path d="M402.3347,572.75875c2.5176-.27974,9.41528-3.76887,9.61384-4.166.33192-.66385-4.26088-12.82502-6.76975-13.94008-.52626-.23389-6.94522,3.793084-7.60835,5.384604-.32438.7785,4.134495,9.316536,4.815475,12.721476" transform="translate(.000001 0)" fill="#15263d" stroke-width="2.048"/><path d="M398.90069,534.38395c0,0,9.774342-4.966007,19.446694-8.383161c4.996531-1.765229,10.054861-3.240156,13.537224-4.041128c11.34862-2.610275,38.566112-3.640291,38.566112-3.640291s-.381081,5.853531-.381081,5.853531s6.219271,3.042967,6.219271,3.042967s6.304579-6.683063,8.029828-10.165412c1.464715-2.95647,2.542909-7.358541,2.735904-10.652302.180485-3.080263-.307621-7.2984-1.377642-10.192472-1.281329-3.465594-4.342418-7.487141-6.686991-10.342858-1.358785-1.655015-3.328052-3.803511-5.124885-4.968313-1.861076-1.206448-4.649176-2.638657-6.864534-2.745011-8.235853-.395383-18.39665,5.65105-26.379921,7.713324-9.102963,2.351518-21.68226,2.077779-30.576167,6.873774-8.631717,4.654612-20.983004,18.017381-20.983004,18.017381s.6392,3.542234.6392,3.542234s1.81536,4.976115,4.049332,9.876688c2.362431,5.182369,5.15066,10.211049,5.15066,10.211049" fill="#fff" stroke-width="0.5"/><path d="M398.90069,534.38395c0,0,9.774342-4.966007,19.446694-8.383161c4.996531-1.765229,10.054861-2.428337,13.537224-3.229309c11.34862-2.610275,38.566112-4.40159,38.566112-4.40159s.208877-4.707543-.124618-5.140926c-.324781-.422059-3.91483.235011-5.28478-1.722059-3.36283-4.80404-6.931922-22.804095-8.962202-22.804095-3.471138.047509.439431,20.231092-2.4637,20.63351-4.003439.228319-3.348365-18.524837-6.242555-20.333707-1.10721-.69201-5.433996-.082058-6.752196.082722-8.242749,1.030342-19.006432,1.698625-27.900339,6.49462-13.040433,7.03199-23.019632,18.716258-23.019632,18.716258s1.491469,4.976115,3.725441,9.876688c2.362431,5.182369,5.474551,10.211049,5.474551,10.211049" fill="#c2d5e4" stroke-width="0.5"/><path d="M440.8826,510.88496c0-4.65471.72637-9.06836.72637-13.69707c0-.6898.68417-3.77775.20753-4.2544-1.59764-1.59764-10.73135.87029-13.07448,1.03766-11.21774.80127-19.99228,4.91164-28.63935,11.8293-1.85861,1.48689-6.931607,4.470882-7.739367,6.624892-.0654.17441,8.061223,15.633676,8.080856,15.637488c4.12.8,12.973151-1.34717,17.506211-2.85819c6.21362-2.07121,13.79337-2.614478,20.25364-3.691188c2.370299-.39505,11.060062-1.230834,11.29115-1.808402c1.043537-2.608155-8.612559-7.70505-8.61256-8.82009" transform="translate(.000001 0)" fill="#b1c7dc" stroke-width="0.56"/><path d="M393.81378,514.73832c2.1709-.72364,7.33167-4.59027,7.33167-4.59027s8.22422,13.00575,8.22422,13.00575-8.92551,4.90903-8.92551,4.90903-1.55466-2.5486-1.7851-2.93267c-1.92851-3.21419-3.53143-6.69281-4.90903-10.13684" fill="#15263d" stroke-width="0.5"/><path d="M391.14617,465.78455c0,0,4.62031-6.416652,7.75452-8.610592.67979-.47585,5.09784-1.811968,5.09784-1.811968s-4.59769-5.08621-4.59769-5.08621-3.313172,2.507208-5.974701,5.08621c-2.71596,2.631744-4.781379,5.33635-4.781379,5.33635s2.50141,5.086211,2.50141,5.086211" fill="#fff" stroke-width="0.5"/><path d="M394.862051,464.087819c1.459594,0,4.731209-1.393674,5.582109-2.730794.51578-.81051,1.11569-1.619537,1.75814-1.585515.12475.031189,2.145412,4.095562,4.49691,7.88504c2.447431,3.944077,5.22519,7.621323,5.13515,7.75639-1.45521,2.18281-7.19061,5.27143-9.84515,4.47507-2.29747-.68924-4.04299-6.21454-4.73079-8.14036-.43563-1.21977-3.242929-6.531071-2.396369-7.659831" transform="translate(0 0.000001)" fill="#15263d" stroke-width="2.048"/><path d="M748.520062,548.54306c0,0-5.059502,11.43814-5.059502,11.43814s76.954846,20.829761,76.999137,20.741192c0,0-71.939635-32.179332-71.939635-32.179332s-5.059502,11.43814-5.059502,11.43814" transform="matrix(-1 0 0 1 1019.207941 0.146037)" fill="#091723" stroke-width="0.5"/></g></g></svg>
