<svg id="eZ3zMefs5Nq1" xmlns="http://www.w3.org/2000/svg" xmlns:xlink="http://www.w3.org/1999/xlink" viewBox="0 0 80 100" shape-rendering="geometricPrecision" text-rendering="geometricPrecision"><g transform="translate(-91.920631-52.545201)"><path d="M116.24332,135.027767c0,0,4.796063,6.274909,10.7794,10.283277c5.546201,3.715522,12.312871,5.186741,12.312871,5.186741s4.066298-4.43553,7.261437-10.418584c2.506601-4.693733,5.830108-15.911985,5.830108-15.911985s-20.72778-1.469474-20.72778-1.469474-15.456036,12.330025-15.456036,12.330025" fill="#15263d" stroke="#505050" stroke-width="4"/><path d="M103.563535,144.546778c0,0-6.252969-1.783735-6.252763-7.515339.000649-18.054953.224857-58.909777.26906-74.922463.228158-4.501901,2.881988-6.684598,4.27523-7.198898s5.831914-.850891,9.343978,2.709885c12.711466,12.887778,43.079064,44.693035,53.568817,55.888437c2.514279,2.683415,1.746243,4.904645,1.257519,6.462056s-2.682999,5.612165-6.507581,5.209957c-7.914109-.832278-21.532517-2.734328-28.152499-.932293-6.40566,1.743694-16.641669,12.210305-22.518436,17.988408-.862769.848285-2.667949,2.672849-5.283325,2.31025-.049544-.006869-6.244624-1.777401-6.252763-7.515339" transform="translate(.000001 0.000001)" fill="#fff" stroke="#505050" stroke-width="4"/></g></svg>
